Serifas_Text-REGULAR.ufo
<glyph name="exclam" format="2">
	<advance width="342"/>
	<unicode hex="0021"/>
	<outline>
		<contour>
			<point x="205" y="197" type="line"/>
			<point x="216" y="740" type="line"/>
			<point x="121" y="740" type="line"/>
			<point x="133" y="197" type="line"/>
		</contour>
		<contour>
			<point x="171" y="-14" type="curve" smooth="yes"/>
			<point x="222" y="-14"/>
			<point x="237" y="1"/>
			<point x="237" y="51" type="curve" smooth="yes"/>
			<point x="237" y="101"/>
			<point x="222" y="114"/>
			<point x="171" y="114" type="curve" smooth="yes"/>
			<point x="120" y="114"/>
			<point x="105" y="101"/>
			<point x="105" y="51" type="curve" smooth="yes"/>
			<point x="105" y="1"/>
			<point x="120" y="-14"/>
		</contour>
	</outline>
</glyph>
<glyph name="percent" format="2">
	<advance width="878"/>
	<unicode hex="0025"/>
	<outline>
		<contour>
			<point x="283" y="119" type="line"/>
			<point x="235" y="-18" type="line"/>
			<point x="303" y="-48" type="line"/>
			<point x="590" y="637" type="line"/>
			<point x="637" y="774" type="line"/>
			<point x="570" y="804" type="line"/>
		</contour>
		<contour>
			<point x="203" y="344" type="curve" smooth="yes"/>
			<point x="322" y="344"/>
			<point x="368" y="404"/>
			<point x="368" y="548" type="curve" smooth="yes"/>
			<point x="368" y="693"/>
			<point x="322" y="753"/>
			<point x="203" y="753" type="curve" smooth="yes"/>
			<point x="88" y="753"/>
			<point x="38" y="693"/>
			<point x="38" y="548" type="curve" smooth="yes"/>
			<point x="38" y="404"/>
			<point x="88" y="344"/>
		</contour>
		<contour>
			<point x="203" y="420" type="curve" smooth="yes"/>
			<point x="133" y="420"/>
			<point x="109" y="451"/>
			<point x="109" y="548" type="curve" smooth="yes"/>
			<point x="109" y="646"/>
			<point x="133" y="675"/>
			<point x="203" y="675" type="curve" smooth="yes"/>
			<point x="276" y="675"/>
			<point x="297" y="646"/>
			<point x="297" y="548" type="curve" smooth="yes"/>
			<point x="297" y="451"/>
			<point x="276" y="420"/>
		</contour>
		<contour>
			<point x="675" y="-8" type="curve" smooth="yes"/>
			<point x="794" y="-8"/>
			<point x="840" y="52"/>
			<point x="840" y="196" type="curve" smooth="yes"/>
			<point x="840" y="341"/>
			<point x="794" y="401"/>
			<point x="675" y="401" type="curve" smooth="yes"/>
			<point x="560" y="401"/>
			<point x="510" y="341"/>
			<point x="510" y="196" type="curve" smooth="yes"/>
			<point x="510" y="52"/>
			<point x="560" y="-8"/>
		</contour>
		<contour>
			<point x="675" y="68" type="curve" smooth="yes"/>
			<point x="605" y="68"/>
			<point x="581" y="99"/>
			<point x="581" y="196" type="curve" smooth="yes"/>
			<point x="581" y="294"/>
			<point x="605" y="323"/>
			<point x="675" y="323" type="curve" smooth="yes"/>
			<point x="748" y="323"/>
			<point x="769" y="294"/>
			<point x="769" y="196" type="curve" smooth="yes"/>
			<point x="769" y="99"/>
			<point x="748" y="68"/>
		</contour>
	</outline>
</glyph>
<glyph name="ampersand" format="2">
	<advance width="742"/>
	<unicode hex="0026"/>
	<outline>
		<contour>
			<point x="194" y="402" type="line"/>
			<point x="257" y="402" type="line"/>
			<point x="249" y="440" type="line"/>
			<point x="194" y="454" type="line"/>
		</contour>
		<contour>
			<point x="537" y="127" type="line"/>
			<point x="596" y="128"/>
			<point x="610" y="160"/>
			<point x="610" y="214" type="curve" smooth="yes"/>
			<point x="610" y="365" type="line"/>
			<point x="579" y="304" type="line"/>
			<point x="711" y="327" type="line"/>
			<point x="711" y="387" type="line"/>
			<point x="535" y="405" type="line"/>
		</contour>
		<contour>
			<point x="501" y="78" type="curve"/>
			<point x="494" y="97" type="line"/>
			<point x="476" y="69"/>
			<point x="427" y="73"/>
			<point x="342" y="73" type="curve" smooth="yes"/>
			<point x="182" y="73"/>
			<point x="131" y="92"/>
			<point x="131" y="224" type="curve" smooth="yes"/>
			<point x="131" y="327"/>
			<point x="158" y="373"/>
			<point x="285" y="373" type="curve"/>
			<point x="261" y="422" type="line"/>
			<point x="111" y="422"/>
			<point x="45" y="358"/>
			<point x="45" y="214" type="curve" smooth="yes"/>
			<point x="45" y="29"/>
			<point x="142" y="-21"/>
			<point x="326" y="-21" type="curve" smooth="yes"/>
			<point x="442" y="-21"/>
			<point x="471" y="2"/>
		</contour>
		<contour>
			<point x="599" y="-26" type="line"/>
			<point x="651" y="21" type="line"/>
			<point x="561" y="123" type="line"/>
			<point x="553" y="126" type="line"/>
			<point x="248" y="457" type="line" smooth="yes"/>
			<point x="211" y="497"/>
			<point x="198" y="513"/>
			<point x="198" y="585" type="curve" smooth="yes"/>
			<point x="198" y="648"/>
			<point x="237" y="663"/>
			<point x="352" y="663" type="curve" smooth="yes"/>
			<point x="397" y="663"/>
			<point x="429" y="654"/>
			<point x="475" y="644" type="curve"/>
			<point x="441" y="693" type="line"/>
			<point x="450" y="535" type="line"/>
			<point x="520" y="535" type="line"/>
			<point x="535" y="724" type="line"/>
			<point x="469" y="748"/>
			<point x="416" y="757"/>
			<point x="346" y="757" type="curve" smooth="yes"/>
			<point x="175" y="757"/>
			<point x="112" y="707"/>
			<point x="112" y="580" type="curve" smooth="yes"/>
			<point x="112" y="487"/>
			<point x="148" y="443"/>
			<point x="232" y="438" type="curve"/>
			<point x="264" y="405" type="line"/>
			<point x="198" y="392" type="line"/>
			<point x="488" y="76" type="line"/>
			<point x="501" y="66" type="line"/>
		</contour>
		<contour>
			<point x="478" y="48" type="line"/>
			<point x="541" y="48" type="line"/>
			<point x="541" y="77" type="line"/>
			<point x="486" y="77" type="line"/>
		</contour>
		<contour>
			<point x="545" y="79" type="line"/>
			<point x="573" y="79" type="line"/>
			<point x="573" y="150" type="line"/>
			<point x="545" y="150" type="line"/>
		</contour>
	</outline>
</glyph>
<glyph name="comma" format="2">
	<advance width="226"/>
	<unicode hex="002C"/>
	<outline>
		<contour>
			<point x="113" y="-14" type="curve" smooth="yes"/>
			<point x="127" y="-14"/>
			<point x="149" y="-9"/>
			<point x="151" y="1" type="curve"/>
			<point x="124" y="29" type="line"/>
			<point x="94" y="-28" type="line"/>
			<point x="58" y="-120" type="line"/>
			<point x="110" y="-140" type="line"/>
			<point x="151" y="-63" type="line" smooth="yes"/>
			<point x="166" y="-35"/>
			<point x="178" y="8"/>
			<point x="178" y="37" type="curve" smooth="yes"/>
			<point x="178" y="99"/>
			<point x="163" y="112"/>
			<point x="113" y="112" type="curve" smooth="yes"/>
			<point x="63" y="112"/>
			<point x="48" y="99"/>
			<point x="48" y="50" type="curve" smooth="yes"/>
			<point x="48" y="1"/>
			<point x="63" y="-14"/>
		</contour>
	</outline>
</glyph>
<glyph name="period" format="2">
	<advance width="226"/>
	<unicode hex="002E"/>
	<outline>
		<contour>
			<point x="113" y="-14" type="curve" smooth="yes"/>
			<point x="163" y="-14"/>
			<point x="178" y="1"/>
			<point x="178" y="50" type="curve" smooth="yes"/>
			<point x="178" y="99"/>
			<point x="163" y="112"/>
			<point x="113" y="112" type="curve" smooth="yes"/>
			<point x="63" y="112"/>
			<point x="48" y="99"/>
			<point x="48" y="50" type="curve" smooth="yes"/>
			<point x="48" y="1"/>
			<point x="63" y="-14"/>
		</contour>
	</outline>
</glyph>
<glyph name="two" format="2">
	<advance width="575"/>
	<unicode hex="0032"/>
	<outline>
		<contour>
			<point x="36" y="104" type="line"/>
			<point x="36" y="473"/>
			<point x="437" y="279"/>
			<point x="437" y="536" type="curve" smooth="yes"/>
			<point x="437" y="639"/>
			<point x="394" y="663"/>
			<point x="249" y="663" type="curve" smooth="yes"/>
			<point x="161" y="663"/>
			<point x="102" y="643"/>
			<point x="63" y="613" type="curve"/>
			<point x="129" y="708" type="line"/>
			<point x="117" y="510" type="line"/>
			<point x="49" y="510" type="line"/>
			<point x="39" y="707" type="line"/>
			<point x="104" y="740"/>
			<point x="178" y="756"/>
			<point x="260" y="756" type="curve" smooth="yes"/>
			<point x="450" y="756"/>
			<point x="521" y="704"/>
			<point x="521" y="538" type="curve" smooth="yes"/>
			<point x="521" y="204"/>
			<point x="118" y="392"/>
			<point x="118" y="124" type="curve" smooth="yes"/>
			<point x="118" y="56" type="line"/>
			<point x="89" y="94" type="line"/>
			<point x="498" y="94" type="line"/>
			<point x="430" y="36" type="line"/>
			<point x="453" y="224" type="line"/>
			<point x="519" y="224" type="line"/>
			<point x="527" y="0" type="line"/>
			<point x="36" y="0" type="line"/>
		</contour>
	</outline>
</glyph>
<glyph name="three" format="2">
  <advance width="650"/>
  <unicode hex="0033"/>
  <outline>
    <contour>
      <point x="106" y="104" type="line"/>
      <point x="178" y="86"/>
      <point x="234" y="81"/>
      <point x="321" y="81" type="curve" smooth="yes"/>
      <point x="493" y="81"/>
      <point x="511" y="115"/>
      <point x="511" y="205" type="curve" smooth="yes"/>
      <point x="511" y="297"/>
      <point x="449" y="319"/>
      <point x="317" y="329" type="curve"/>
      <point x="241" y="332" type="line"/>
      <point x="241" y="404" type="line"/>
      <point x="317" y="409" type="line"/>
      <point x="439" y="417"/>
      <point x="478" y="445"/>
      <point x="478" y="573" type="curve" smooth="yes"/>
      <point x="478" y="637"/>
      <point x="466" y="664"/>
      <point x="337" y="664" type="curve" smooth="yes"/>
      <point x="262" y="664"/>
      <point x="200" y="655"/>
      <point x="155" y="642" type="curve"/>
      <point x="200" y="683" type="line"/>
      <point x="187" y="528" type="line"/>
      <point x="115" y="528" type="line"/>
      <point x="115" y="723" type="line"/>
      <point x="170" y="748"/>
      <point x="249" y="758"/>
      <point x="334" y="758" type="curve" smooth="yes"/>
      <point x="502" y="758"/>
      <point x="562" y="710"/>
      <point x="562" y="576" type="curve" smooth="yes"/>
      <point x="562" y="444"/>
      <point x="516" y="373"/>
      <point x="407" y="370" type="curve" smooth="yes"/>
      <point x="340" y="368" type="line"/>
      <point x="422" y="414" type="line"/>
      <point x="422" y="347" type="line"/>
      <point x="340" y="369" type="line"/>
      <point x="407" y="367" type="line" smooth="yes"/>
      <point x="538" y="363"/>
      <point x="595" y="310"/>
      <point x="595" y="198" type="curve" smooth="yes"/>
      <point x="595" y="39"/>
      <point x="527" y="-18"/>
      <point x="334" y="-18" type="curve" smooth="yes"/>
      <point x="247" y="-18"/>
      <point x="162" y="2"/>
      <point x="106" y="29" type="curve"/>
    </contour>
  </outline>
</glyph>
<glyph name="five" format="2">
  <advance width="628"/>
  <unicode hex="0035"/>
  <outline>
    <contour>
      <point x="197" y="374" type="line"/>
      <point x="230" y="710" type="line"/>
      <point x="184" y="651" type="line"/>
      <point x="487" y="651" type="line"/>
      <point x="463" y="714" type="line"/>
      <point x="476" y="535" type="line"/>
      <point x="545" y="535" type="line"/>
      <point x="545" y="740" type="line"/>
      <point x="144" y="740" type="line"/>
      <point x="104" y="341" type="line"/>
      <point x="297" y="345" type="line" smooth="yes"/>
      <point x="429" y="348"/>
      <point x="490" y="339"/>
      <point x="490" y="226" type="curve" smooth="yes"/>
      <point x="490" y="117"/>
      <point x="436" y="78"/>
      <point x="323" y="78" type="curve"/>
      <point x="218" y="78"/>
      <point x="183" y="84"/>
      <point x="68" y="111" type="curve"/>
      <point x="68" y="37" type="line"/>
      <point x="131" y="3"/>
      <point x="216" y="-18"/>
      <point x="319" y="-18" type="curve" smooth="yes"/>
      <point x="493.0" y="-18.0"/>
      <point x="572" y="59"/>
      <point x="572" y="227" type="curve" smooth="yes"/>
      <point x="572" y="377"/>
      <point x="496" y="440"/>
      <point x="365" y="439" type="curve"/>
      <point x="269" y="439"/>
      <point x="224" y="422"/>
      <point x="188" y="359" type="curve"/>
    </contour>
  </outline>
</glyph>
<glyph name="six" format="2">
  <advance width="642"/>
  <unicode hex="0036"/>
  <outline>
    <contour>
      <point x="78" y="286" type="line"/>
      <point x="150" y="324"/>
      <point x="249" y="344"/>
      <point x="324" y="344" type="curve"/>
      <point x="462" y="344"/>
      <point x="507" y="327"/>
      <point x="507" y="214" type="curve" smooth="yes"/>
      <point x="507" y="112"/>
      <point x="461" y="73"/>
      <point x="335" y="73" type="curve" smooth="yes"/>
      <point x="191" y="73"/>
      <point x="138" y="148"/>
      <point x="138" y="360" type="curve" smooth="yes"/>
      <point x="138" y="582"/>
      <point x="194" y="664"/>
      <point x="327" y="664" type="curve"/>
      <point x="426" y="664"/>
      <point x="485" y="652"/>
      <point x="536" y="634" type="curve"/>
      <point x="536" y="702" type="line"/>
      <point x="499" y="738"/>
      <point x="433" y="758"/>
      <point x="335" y="758" type="curve"/>
      <point x="138" y="758"/>
      <point x="56" y="646"/>
      <point x="56" y="352" type="curve" smooth="yes"/>
      <point x="56" y="80"/>
      <point x="130" y="-18"/>
      <point x="335" y="-18" type="curve" smooth="yes"/>
      <point x="513" y="-18"/>
      <point x="585" y="71"/>
      <point x="585" y="225" type="curve" smooth="yes"/>
      <point x="585" y="375"/>
      <point x="516" y="430"/>
      <point x="358" y="430" type="curve"/>
      <point x="251" y="430"/>
      <point x="168" y="409"/>
      <point x="128" y="320" type="curve"/>
      <point x="180" y="341" type="line"/>
      <point x="116" y="343" type="line"/>
    </contour>
  </outline>
</glyph>
<glyph name="seven" format="2">
  <advance width="609"/>
  <unicode hex="0037"/>
  <outline>
    <contour>
      <point x="55" y="740" type="line"/>
      <point x="55" y="506" type="line"/>
      <point x="127" y="506" type="line"/>
      <point x="141" y="718" type="line"/>
      <point x="105" y="656" type="line"/>
      <point x="498" y="656" type="line"/>
      <point x="486" y="729" type="line"/>
      <point x="161" y="0" type="line"/>
      <point x="257" y="0" type="line"/>
      <point x="555" y="662" type="line"/>
      <point x="555" y="740" type="line"/>
    </contour>
  </outline>
</glyph>
<glyph name="eight" format="2">
	<advance width="708"/>
	<unicode hex="0038"/>
	<outline>
		<contour>
			<point x="352" y="347" type="curve" smooth="yes"/>
			<point x="221" y="347"/>
			<point x="162" y="315"/>
			<point x="162" y="211" type="curve" smooth="yes"/>
			<point x="162" y="109"/>
			<point x="217" y="68"/>
			<point x="352" y="68" type="curve" smooth="yes"/>
			<point x="487" y="68"/>
			<point x="542" y="109"/>
			<point x="542" y="211" type="curve" smooth="yes"/>
			<point x="542" y="315"/>
			<point x="483" y="347"/>
		</contour>
		<contour>
			<point x="352" y="664" type="curve" smooth="yes"/>
			<point x="235" y="664"/>
			<point x="189" y="629"/>
			<point x="189" y="544" type="curve" smooth="yes"/>
			<point x="189" y="445"/>
			<point x="239" y="416"/>
			<point x="352" y="416" type="curve" smooth="yes"/>
			<point x="465" y="416"/>
			<point x="515" y="445"/>
			<point x="515" y="544" type="curve" smooth="yes"/>
			<point x="515" y="629"/>
			<point x="469" y="664"/>
		</contour>
		<contour>
			<point x="352" y="-18" type="curve" smooth="yes"/>
			<point x="146" y="-18"/>
			<point x="63" y="45"/>
			<point x="63" y="203" type="curve" smooth="yes"/>
			<point x="63" y="316"/>
			<point x="111" y="365"/>
			<point x="234" y="374" type="curve" smooth="yes"/>
			<point x="301" y="379" type="line"/>
			<point x="231" y="360" type="line"/>
			<point x="231" y="424" type="line"/>
			<point x="301" y="390" type="line"/>
			<point x="234" y="395" type="line" smooth="yes"/>
			<point x="132" y="403"/>
			<point x="93" y="452"/>
			<point x="93" y="571" type="curve" smooth="yes"/>
			<point x="93" y="700"/>
			<point x="167" y="750"/>
			<point x="352" y="750" type="curve" smooth="yes"/>
			<point x="537" y="750"/>
			<point x="611" y="700"/>
			<point x="611" y="571" type="curve" smooth="yes"/>
			<point x="611" y="452"/>
			<point x="572" y="403"/>
			<point x="470" y="395" type="curve" smooth="yes"/>
			<point x="403" y="390" type="line"/>
			<point x="473" y="424" type="line"/>
			<point x="473" y="360" type="line"/>
			<point x="403" y="379" type="line"/>
			<point x="470" y="374" type="line" smooth="yes"/>
			<point x="593" y="365"/>
			<point x="641" y="316"/>
			<point x="641" y="203" type="curve" smooth="yes"/>
			<point x="641" y="45"/>
			<point x="558" y="-18"/>
		</contour>
	</outline>
</glyph>
<glyph name="nine" format="2">
	<advance width="676"/>
	<unicode hex="0039"/>
	<outline>
		<contour>
			<point x="576" y="414" type="line"/>
			<point x="504" y="376"/>
			<point x="401" y="357"/>
			<point x="316" y="357" type="curve" smooth="yes"/>
			<point x="188" y="357"/>
			<point x="147" y="388"/>
			<point x="147" y="524" type="curve" smooth="yes"/>
			<point x="147" y="637"/>
			<point x="204" y="666"/>
			<point x="330" y="666" type="curve" smooth="yes"/>
			<point x="487" y="666"/>
			<point x="517" y="608"/>
			<point x="517" y="371" type="curve" smooth="yes"/>
			<point x="517" y="161"/>
			<point x="482" y="81"/>
			<point x="310" y="81" type="curve" smooth="yes"/>
			<point x="210" y="81"/>
			<point x="158" y="88"/>
			<point x="107" y="107" type="curve"/>
			<point x="77" y="41" type="line"/>
			<point x="137" y="1"/>
			<point x="212" y="-18"/>
			<point x="319" y="-18" type="curve" smooth="yes"/>
			<point x="516" y="-18"/>
			<point x="598" y="85"/>
			<point x="598" y="358" type="curve" smooth="yes"/>
			<point x="598" y="677"/>
			<point x="551" y="758"/>
			<point x="329" y="758" type="curve" smooth="yes"/>
			<point x="151" y="758"/>
			<point x="69" y="678"/>
			<point x="69" y="514" type="curve" smooth="yes"/>
			<point x="69" y="345"/>
			<point x="130" y="270"/>
			<point x="306" y="270" type="curve" smooth="yes"/>
			<point x="422" y="270"/>
			<point x="465" y="285"/>
			<point x="498" y="374" type="curve"/>
			<point x="467" y="340" type="line"/>
			<point x="530" y="340" type="line"/>
		</contour>
	</outline>
</glyph>
<glyph name="question" format="2">
	<advance width="509"/>
	<unicode hex="003F"/>
	<outline>
		<contour>
			<point x="210" y="293" type="line"/>
			<point x="255" y="293" type="line" smooth="yes"/>
			<point x="422" y="293"/>
			<point x="492" y="365"/>
			<point x="492" y="538" type="curve" smooth="yes"/>
			<point x="492" y="688"/>
			<point x="419" y="757"/>
			<point x="260" y="757" type="curve" smooth="yes"/>
			<point x="163" y="757"/>
			<point x="93" y="743"/>
			<point x="37" y="713" type="curve"/>
			<point x="45" y="529" type="line"/>
			<point x="117" y="529" type="line"/>
			<point x="127" y="687" type="line"/>
			<point x="92" y="636" type="line"/>
			<point x="146" y="656"/>
			<point x="190" y="664"/>
			<point x="251" y="664" type="curve" smooth="yes"/>
			<point x="367" y="664"/>
			<point x="411" y="628"/>
			<point x="411" y="535" type="curve" smooth="yes"/>
			<point x="411" y="402"/>
			<point x="369" y="372"/>
			<point x="214" y="372" type="curve" smooth="yes"/>
			<point x="138" y="372" type="line"/>
			<point x="148" y="181" type="line"/>
			<point x="214" y="181" type="line"/>
			<point x="226" y="321" type="line"/>
		</contour>
		<component base="period" xOffset="72"/>
	</outline>
</glyph>
<glyph name="A" format="2">
	<advance width="733"/>
	<unicode hex="0041"/>
	<guideline y="676"/>
	<guideline y="656"/>
	<outline>
		<contour>
			<point x="177" y="234" type="line"/>
			<point x="562" y="234" type="line"/>
			<point x="562" y="319" type="line"/>
			<point x="177" y="319" type="line"/>
		</contour>
		<contour>
			<point x="140" y="673" type="line"/>
			<point x="289" y="647" type="line"/>
			<point x="325" y="740" type="line"/>
			<point x="140" y="740" type="line"/>
		</contour>
		<contour>
			<point x="582" y="52" type="line"/>
			<point x="624" y="100" type="line"/>
			<point x="476" y="64" type="line"/>
			<point x="476" y="0" type="line"/>
			<point x="754" y="0" type="line"/>
			<point x="754" y="64" type="line"/>
			<point x="649" y="102" type="line"/>
			<point x="670" y="56" type="line"/>
			<point x="447" y="740" type="line"/>
			<point x="291" y="740" type="line"/>
			<point x="58" y="57" type="line"/>
			<point x="100" y="102" type="line"/>
			<point x="-10" y="64" type="line"/>
			<point x="-10" y="0" type="line"/>
			<point x="261" y="0" type="line"/>
			<point x="261" y="64" type="line"/>
			<point x="127" y="100" type="line"/>
			<point x="139" y="58" type="line"/>
			<point x="354" y="684" type="line"/>
			<point x="321" y="646" type="line"/>
			<point x="408" y="646" type="line"/>
			<point x="381" y="684" type="line"/>
		</contour>
	</outline>
</glyph>
<glyph name="B" format="2">
	<advance width="692"/>
	<unicode hex="0042"/>
	<outline>
		<contour>
			<point x="45" y="64" type="line"/>
			<point x="45" y="0" type="line"/>
			<point x="372" y="0" type="line" smooth="yes"/>
			<point x="553" y="0"/>
			<point x="635" y="63"/>
			<point x="635" y="205" type="curve" smooth="yes"/>
			<point x="635" y="343"/>
			<point x="553" y="370"/>
			<point x="442" y="376" type="curve" smooth="yes"/>
			<point x="422" y="377" type="line"/>
			<point x="457" y="361" type="line"/>
			<point x="457" y="427" type="line"/>
			<point x="422" y="399" type="line"/>
			<point x="442" y="400" type="line" smooth="yes"/>
			<point x="548" y="405"/>
			<point x="590" y="467"/>
			<point x="590" y="561" type="curve" smooth="yes"/>
			<point x="590" y="692"/>
			<point x="535" y="740"/>
			<point x="404" y="740" type="curve" smooth="yes"/>
			<point x="45" y="740" type="line"/>
			<point x="45" y="676" type="line"/>
			<point x="150" y="639" type="line"/>
			<point x="128" y="690" type="line"/>
			<point x="128" y="65" type="line"/>
			<point x="164" y="107" type="line"/>
		</contour>
		<contour>
			<point x="174" y="92" type="line"/>
			<point x="210" y="54" type="line"/>
			<point x="210" y="698" type="line"/>
			<point x="175" y="648" type="line"/>
			<point x="396" y="648" type="line" smooth="yes"/>
			<point x="464" y="648"/>
			<point x="505" y="627.38384"/>
			<point x="505" y="549" type="curve"/>
			<point x="505" y="460.76724"/>
			<point x="465" y="434"/>
			<point x="359" y="434" type="curve" smooth="yes"/>
			<point x="190" y="434" type="line"/>
			<point x="190" y="345" type="line"/>
			<point x="366" y="345" type="line" smooth="yes"/>
			<point x="499" y="345"/>
			<point x="549" y="318"/>
			<point x="549" y="222" type="curve" smooth="yes"/>
			<point x="549" y="117"/>
			<point x="500" y="92"/>
			<point x="402" y="92" type="curve" smooth="yes"/>
		</contour>
	</outline>
</glyph>
<glyph name="F" format="2">
	<advance width="625"/>
	<unicode hex="0046"/>
	<guideline y="655"/>
	<guideline y="516"/>
	<guideline y="84"/>
	<outline>
		<contour>
			<point x="213" y="37" type="line"/>
			<point x="187" y="103" type="line"/>
			<point x="391" y="66" type="line"/>
			<point x="391" y="0" type="line"/>
			<point x="45" y="0" type="line"/>
			<point x="45" y="64" type="line"/>
			<point x="159" y="105" type="line"/>
			<point x="128" y="45" type="line"/>
			<point x="128" y="690" type="line"/>
			<point x="154" y="640" type="line"/>
			<point x="45" y="676" type="line"/>
			<point x="45" y="740" type="line"/>
			<point x="595" y="740" type="line"/>
			<point x="582" y="507" type="line"/>
			<point x="516" y="507" type="line"/>
			<point x="507" y="668" type="line"/>
			<point x="547" y="650" type="line"/>
			<point x="188" y="650" type="line"/>
			<point x="213" y="679" type="line"/>
		</contour>
		<contour>
			<point x="153" y="309" type="line"/>
			<point x="153" y="410" type="line"/>
			<point x="453" y="396" type="line"/>
			<point x="453" y="320" type="line"/>
		</contour>
	</outline>
</glyph>
<glyph name="H" format="2">
	<advance width="802"/>
	<unicode hex="0048"/>
	<outline>
		<contour>
			<point x="183" y="323" type="line"/>
			<point x="183" y="411" type="line"/>
			<point x="619" y="411" type="line"/>
			<point x="619" y="323" type="line"/>
		</contour>
		<contour>
			<point x="45" y="0" type="line"/>
			<point x="45" y="64" type="line"/>
			<point x="153" y="102" type="line"/>
			<point x="130" y="62" type="line"/>
			<point x="130" y="678" type="line"/>
			<point x="153" y="638" type="line"/>
			<point x="45" y="676" type="line"/>
			<point x="45" y="740" type="line"/>
			<point x="300" y="740" type="line"/>
			<point x="300" y="676" type="line"/>
			<point x="180" y="639" type="line"/>
			<point x="212" y="678" type="line"/>
			<point x="212" y="62" type="line"/>
			<point x="180" y="101" type="line"/>
			<point x="300" y="64" type="line"/>
			<point x="300" y="0" type="line"/>
		</contour>
		<contour>
			<point x="757" y="0" type="line"/>
			<point x="502" y="0" type="line"/>
			<point x="502" y="64" type="line"/>
			<point x="619" y="101" type="line"/>
			<point x="590" y="62" type="line"/>
			<point x="590" y="678" type="line"/>
			<point x="619" y="639" type="line"/>
			<point x="502" y="676" type="line"/>
			<point x="502" y="740" type="line"/>
			<point x="757" y="740" type="line"/>
			<point x="757" y="676" type="line"/>
			<point x="649" y="638" type="line"/>
			<point x="672" y="678" type="line"/>
			<point x="672" y="62" type="line"/>
			<point x="649" y="102" type="line"/>
			<point x="757" y="64" type="line"/>
		</contour>
	</outline>
</glyph>
<glyph name="I" format="2">
	<advance width="343"/>
	<unicode hex="0049"/>
	<outline>
		<contour>
			<point x="42" y="0" type="line"/>
			<point x="42" y="64" type="line"/>
			<point x="154" y="103" type="line"/>
			<point x="130" y="62" type="line"/>
			<point x="130" y="678" type="line"/>
			<point x="159" y="637" type="line"/>
			<point x="42" y="676" type="line"/>
			<point x="42" y="740" type="line"/>
			<point x="301" y="740" type="line"/>
			<point x="301" y="676" type="line"/>
			<point x="184" y="638" type="line"/>
			<point x="213" y="678" type="line"/>
			<point x="213" y="62" type="line"/>
			<point x="187" y="103" type="line"/>
			<point x="301" y="64" type="line"/>
			<point x="301" y="0" type="line"/>
		</contour>
	</outline>
</glyph>
<glyph name="J" format="2">
	<advance width="575"/>
	<unicode hex="004A"/>
	<outline>
		<contour>
			<point x="13" y="26" type="line"/>
			<point x="82.53275" y="-4.23163"/>
			<point x="145" y="-18"/>
			<point x="206" y="-18" type="curve" smooth="yes"/>
			<point x="365" y="-18"/>
			<point x="416" y="53"/>
			<point x="416" y="243" type="curve" smooth="yes"/>
			<point x="416" y="693" type="line"/>
			<point x="385" y="642" type="line"/>
			<point x="541" y="676" type="line"/>
			<point x="541" y="740" type="line"/>
			<point x="153" y="740" type="line"/>
			<point x="153" y="674" type="line"/>
			<point x="368" y="633" type="line"/>
			<point x="333" y="686" type="line"/>
			<point x="333" y="248" type="line" smooth="yes"/>
			<point x="333" y="120.49133"/>
			<point x="290" y="77"/>
			<point x="198" y="77" type="curve" smooth="yes"/>
			<point x="135" y="77"/>
			<point x="77" y="84"/>
			<point x="38" y="97" type="curve"/>
		</contour>
	</outline>
</glyph>
<glyph name="K" format="2">
	<advance width="732"/>
	<unicode hex="004B"/>
	<guideline x="710" y="234" angle="90"/>
	<outline>
		<contour>
			<point x="421" y="324" type="line"/>
			<point x="190" y="324" type="line"/>
			<point x="190" y="408" type="line"/>
			<point x="421" y="408" type="line"/>
		</contour>
		<contour>
			<point x="45" y="0" type="line"/>
			<point x="45" y="64" type="line"/>
			<point x="153" y="102" type="line"/>
			<point x="130" y="62" type="line"/>
			<point x="130" y="678" type="line"/>
			<point x="153" y="638" type="line"/>
			<point x="45" y="676" type="line"/>
			<point x="45" y="740" type="line"/>
			<point x="300" y="740" type="line"/>
			<point x="300" y="676" type="line"/>
			<point x="181" y="639" type="line"/>
			<point x="212" y="678" type="line"/>
			<point x="212" y="62" type="line"/>
			<point x="183" y="101" type="line"/>
			<point x="300" y="64" type="line"/>
			<point x="300" y="0" type="line"/>
		</contour>
		<contour>
			<point x="582" y="59" type="line"/>
			<point x="401" y="340" type="line"/>
			<point x="372" y="343" type="line"/>
			<point x="570" y="690" type="line"/>
			<point x="577" y="636" type="line"/>
			<point x="448" y="676" type="line"/>
			<point x="448" y="740" type="line"/>
			<point x="721" y="740" type="line"/>
			<point x="721" y="676" type="line"/>
			<point x="603" y="637" type="line"/>
			<point x="646" y="660" type="line"/>
			<point x="441" y="298" type="line"/>
			<point x="475" y="378" type="line"/>
			<point x="678" y="60" type="line"/>
			<point x="620" y="109" type="line"/>
			<point x="738" y="66" type="line"/>
			<point x="738" y="0" type="line"/>
			<point x="471" y="0" type="line"/>
			<point x="471" y="64" type="line"/>
			<point x="572" y="102" type="line"/>
		</contour>
		<component base="space"/>
	</outline>
</glyph>
<glyph name="L" format="2">
	<advance width="618"/>
	<unicode hex="004C"/>
	<outline>
		<contour>
			<point x="586" y="0" type="line"/>
			<point x="45" y="0" type="line"/>
			<point x="45" y="64" type="line"/>
			<point x="164" y="106" type="line"/>
			<point x="130" y="65" type="line"/>
			<point x="130" y="690" type="line"/>
			<point x="159" y="636" type="line"/>
			<point x="45" y="676" type="line"/>
			<point x="45" y="740" type="line"/>
			<point x="380" y="740" type="line"/>
			<point x="380" y="676" type="line"/>
			<point x="181" y="646" type="line"/>
			<point x="213" y="698" type="line"/>
			<point x="213" y="73" type="line"/>
			<point x="187" y="93" type="line"/>
			<point x="528" y="93" type="line"/>
			<point x="494" y="64" type="line"/>
			<point x="510" y="259" type="line"/>
			<point x="577" y="259" type="line"/>
		</contour>
	</outline>
</glyph>
<glyph name="N" format="2">
	<advance width="804"/>
	<unicode hex="004E"/>
	<guideline y="676"/>
	<guideline y="656"/>
	<guideline y="84"/>
	<outline>
		<contour>
			<point x="625" y="37" type="line"/>
			<point x="287" y="740" type="line"/>
			<point x="45" y="740" type="line"/>
			<point x="45" y="676" type="line"/>
			<point x="153" y="638" type="line"/>
			<point x="130" y="678" type="line"/>
			<point x="130" y="62" type="line"/>
			<point x="153" y="102" type="line"/>
			<point x="45" y="64" type="line"/>
			<point x="45" y="0" type="line"/>
			<point x="302" y="0" type="line"/>
			<point x="302" y="64" type="line"/>
			<point x="182" y="101" type="line"/>
			<point x="214" y="62" type="line"/>
			<point x="214" y="709" type="line"/>
			<point x="213" y="701" type="line"/>
			<point x="549" y="0" type="line"/>
			<point x="706" y="0" type="line"/>
			<point x="706" y="678" type="line"/>
			<point x="683" y="638" type="line"/>
			<point x="791" y="676" type="line"/>
			<point x="791" y="740" type="line"/>
			<point x="534" y="740" type="line"/>
			<point x="534" y="676" type="line"/>
			<point x="651" y="639" type="line"/>
			<point x="622" y="678" type="line"/>
			<point x="622" y="23" type="line"/>
		</contour>
		<contour>
			<point x="150" y="641" type="line"/>
			<point x="244" y="641" type="line"/>
			<point x="244" y="721" type="line"/>
			<point x="150" y="721" type="line"/>
		</contour>
		<contour>
			<point x="576" y="9" type="line"/>
			<point x="667" y="9" type="line"/>
			<point x="667" y="99" type="line"/>
			<point x="576" y="99" type="line"/>
		</contour>
	</outline>
</glyph>
<glyph name="O" format="2">
	<advance width="748"/>
	<unicode hex="004F"/>
	<outline>
		<contour>
			<point x="374" y="-18" type="curve" smooth="yes"/>
			<point x="149" y="-18"/>
			<point x="55" y="96"/>
			<point x="55" y="370" type="curve" smooth="yes"/>
			<point x="55" y="645"/>
			<point x="149" y="758"/>
			<point x="374" y="758" type="curve" smooth="yes"/>
			<point x="599" y="758"/>
			<point x="693" y="645"/>
			<point x="693" y="370" type="curve" smooth="yes"/>
			<point x="693" y="96"/>
			<point x="599" y="-18"/>
		</contour>
		<contour>
			<point x="374" y="82" type="curve" smooth="yes"/>
			<point x="532" y="82"/>
			<point x="608" y="145"/>
			<point x="608" y="370" type="curve" smooth="yes"/>
			<point x="608" y="596"/>
			<point x="532" y="658"/>
			<point x="374" y="658" type="curve" smooth="yes"/>
			<point x="216" y="658"/>
			<point x="140" y="596"/>
			<point x="140" y="370" type="curve" smooth="yes"/>
			<point x="140" y="145"/>
			<point x="216" y="82"/>
		</contour>
	</outline>
</glyph>
<glyph name="Q" format="2">
	<advance width="748"/>
	<unicode hex="0051"/>
	<outline>
		<contour>
			<point x="335" y="11" type="line"/>
			<point x="415" y="10" type="line"/>
			<point x="415" y="-57" type="line" smooth="yes"/>
			<point x="415" y="-107"/>
			<point x="437" y="-123"/>
			<point x="510" y="-123" type="curve" smooth="yes"/>
			<point x="560" y="-123"/>
			<point x="603" y="-119"/>
			<point x="653" y="-110" type="curve"/>
			<point x="667" y="-176" type="line"/>
			<point x="592" y="-201"/>
			<point x="539" y="-213"/>
			<point x="480" y="-213" type="curve" smooth="yes"/>
			<point x="384" y="-213"/>
			<point x="335" y="-172"/>
			<point x="335" y="-90" type="curve"/>
		</contour>
		<component base="O" yOffset="-1"/>
	</outline>
</glyph>
<glyph name="S" format="2">
	<advance width="641"/>
	<unicode hex="0053"/>
	<outline>
		<contour>
			<point x="495" y="516" type="line"/>
			<point x="562" y="516" type="line"/>
			<point x="572" y="713" type="line"/>
			<point x="572" y="713"/>
			<point x="491.26754" y="759"/>
			<point x="339" y="759" type="curve" smooth="yes"/>
			<point x="194" y="759"/>
			<point x="61" y="737"/>
			<point x="62" y="549" type="curve" smooth="yes"/>
			<point x="64" y="228"/>
			<point x="500" y="404"/>
			<point x="500" y="210" type="curve" smooth="yes"/>
			<point x="500" y="92"/>
			<point x="426" y="80"/>
			<point x="313" y="80" type="curve" smooth="yes"/>
			<point x="223" y="80"/>
			<point x="165" y="94"/>
			<point x="105" y="122" type="curve"/>
			<point x="134" y="85" type="line"/>
			<point x="127" y="234" type="line"/>
			<point x="59" y="234" type="line"/>
			<point x="48" y="45" type="line"/>
			<point x="48" y="45"/>
			<point x="149" y="-18"/>
			<point x="306" y="-18" type="curve" smooth="yes"/>
			<point x="453.63636" y="-18"/>
			<point x="586" y="25"/>
			<point x="586" y="215" type="curve" smooth="yes"/>
			<point x="586" y="492"/>
			<point x="148" y="321"/>
			<point x="148" y="548" type="curve" smooth="yes"/>
			<point x="148" y="618"/>
			<point x="191" y="660"/>
			<point x="342" y="660" type="curve" smooth="yes"/>
			<point x="415.07602" y="660"/>
			<point x="462.64307" y="654.55282"/>
			<point x="518" y="632" type="curve"/>
			<point x="488" y="666" type="line"/>
		</contour>
	</outline>
</glyph>
<glyph name="U" format="2">
	<advance width="799"/>
	<unicode hex="0055"/>
	<outline>
		<contour>
			<point x="754" y="0" type="line"/>
			<point x="587" y="0" type="line"/>
			<point x="587" y="678" type="line"/>
			<point x="616" y="639" type="line"/>
			<point x="499" y="676" type="line"/>
			<point x="499" y="740" type="line"/>
			<point x="754" y="740" type="line"/>
			<point x="754" y="676" type="line"/>
			<point x="646" y="638" type="line"/>
			<point x="669" y="678" type="line"/>
			<point x="669" y="62" type="line"/>
			<point x="646" y="102" type="line"/>
			<point x="754" y="64" type="line"/>
		</contour>
		<contour>
			<point x="191" y="683" type="line"/>
			<point x="191" y="243" type="line" smooth="yes"/>
			<point x="191" y="132"/>
			<point x="239" y="88"/>
			<point x="360" y="88" type="curve" smooth="yes"/>
			<point x="464" y="88"/>
			<point x="557" y="138"/>
			<point x="616" y="202" type="curve"/>
			<point x="643" y="141" type="line"/>
			<point x="626" y="107" type="line"/>
			<point x="523" y="107" type="line"/>
			<point x="560" y="113" type="line"/>
			<point x="535" y="22"/>
			<point x="461" y="-18"/>
			<point x="339" y="-18" type="curve" smooth="yes"/>
			<point x="177" y="-18"/>
			<point x="108" y="51"/>
			<point x="108" y="219" type="curve" smooth="yes"/>
			<point x="108" y="684" type="line"/>
			<point x="131" y="638" type="line"/>
			<point x="23" y="676" type="line"/>
			<point x="23" y="740" type="line"/>
			<point x="278" y="740" type="line"/>
			<point x="278" y="676" type="line"/>
			<point x="161" y="639" type="line"/>
		</contour>
	</outline>
</glyph>
<glyph name="V" format="2">
	<advance width="740"/>
	<unicode hex="0056"/>
	<guideline x="256" y="648" angle="0"/>
	<outline>
		<contour>
			<point x="117" y="633" type="line"/>
			<point x="254" y="676" type="line"/>
			<point x="254" y="740" type="line"/>
			<point x="-21" y="740" type="line"/>
			<point x="-21" y="676" type="line"/>
			<point x="92" y="636" type="line"/>
		</contour>
		<contour>
			<point x="648" y="636" type="line"/>
			<point x="761" y="676" type="line"/>
			<point x="761" y="740" type="line"/>
			<point x="486" y="740" type="line"/>
			<point x="486" y="676" type="line"/>
			<point x="623" y="633" type="line"/>
		</contour>
		<contour>
			<point x="326" y="91" type="line"/>
			<point x="357" y="69" type="line"/>
			<point x="157" y="682" type="line"/>
			<point x="64" y="676" type="line"/>
			<point x="285" y="0" type="line"/>
			<point x="454" y="0" type="line"/>
			<point x="675" y="676" type="line"/>
			<point x="586" y="682" type="line"/>
			<point x="386" y="69" type="line"/>
			<point x="414" y="91" type="line"/>
		</contour>
	</outline>
</glyph>
<glyph name="Y" format="2">
	<advance width="748"/>
	<unicode hex="0059"/>
	<guideline x="388" y="212" angle="0"/>
	<outline>
		<contour>
			<point x="419" y="264" type="line"/>
			<point x="419" y="59" type="line"/>
			<point x="398" y="102" type="line"/>
			<point x="571" y="62" type="line"/>
			<point x="571" y="0" type="line"/>
			<point x="186" y="0" type="line"/>
			<point x="186" y="62" type="line"/>
			<point x="354" y="101" type="line"/>
			<point x="339" y="58" type="line"/>
			<point x="339" y="264" type="line"/>
		</contour>
		<contour>
			<point x="601" y="675" type="line"/>
			<point x="689" y="670" type="line"/>
			<point x="406" y="183" type="line"/>
			<point x="353" y="183" type="line"/>
			<point x="67" y="673" type="line"/>
			<point x="164" y="671" type="line"/>
			<point x="372" y="298" type="line"/>
			<point x="391" y="298" type="line"/>
		</contour>
		<contour>
			<point x="125" y="633" type="line"/>
			<point x="102" y="638" type="line"/>
			<point x="-11" y="676" type="line"/>
			<point x="-11" y="740" type="line"/>
			<point x="283" y="740" type="line"/>
			<point x="283" y="676" type="line"/>
		</contour>
		<contour>
			<point x="629" y="635" type="line"/>
			<point x="464" y="676" type="line"/>
			<point x="464" y="740" type="line"/>
			<point x="759" y="740" type="line"/>
			<point x="759" y="676" type="line"/>
			<point x="646" y="636" type="line"/>
		</contour>
	</outline>
</glyph>
<glyph name="Z" format="2">
	<advance width="609"/>
	<unicode hex="005A"/>
	<outline>
		<contour>
			<point x="51" y="740" type="line"/>
			<point x="61" y="506" type="line"/>
			<point x="128" y="506" type="line"/>
			<point x="140" y="691" type="line"/>
			<point x="108" y="648" type="line"/>
			<point x="477" y="648" type="line"/>
			<point x="474" y="642" type="line"/>
			<point x="44" y="132" type="line"/>
			<point x="44" y="0" type="line"/>
			<point x="578" y="0" type="line"/>
			<point x="572" y="234" type="line"/>
			<point x="505" y="234" type="line"/>
			<point x="487" y="31" type="line"/>
			<point x="532" y="92" type="line"/>
			<point x="130" y="92" type="line"/>
			<point x="130" y="106" type="line"/>
			<point x="556" y="609" type="line"/>
			<point x="556" y="740" type="line"/>
		</contour>
		<contour>
			<point x="530" y="706" type="line"/>
			<point x="460" y="706" type="line"/>
			<point x="460" y="578" type="line"/>
		</contour>
		<contour>
			<point x="139" y="20" type="line"/>
			<point x="139" y="134" type="line"/>
			<point x="56" y="127" type="line"/>
			<point x="56" y="13" type="line"/>
		</contour>
	</outline>
</glyph>
<glyph name="bracketright" format="2">
	<advance width="466"/>
	<unicode hex="005D"/>
	<outline>
		<contour>
			<point x="53" y="788" type="line"/>
			<point x="49" y="711" type="line"/>
			<point x="262" y="687" type="line"/>
			<point x="232" y="720" type="line"/>
			<point x="232" y="-70" type="line"/>
			<point x="262" y="-37" type="line"/>
			<point x="49" y="-61" type="line"/>
			<point x="53" y="-138" type="line"/>
			<point x="313" y="-132" type="line"/>
			<point x="313" y="782" type="line"/>
		</contour>
	</outline>
</glyph>
<glyph name="a" format="2">
  <advance width="584"/>
  <unicode hex="0061"/>
  <outline>
    <contour>
      <point x="231" y="-17" type="curve" smooth="yes"/>
      <point x="148.55357142857144" y="-17.0"/>
      <point x="60" y="24"/>
      <point x="60" y="154" type="curve"/>
      <point x="63" y="296"/>
      <point x="141.0" y="327.0"/>
      <point x="258" y="327" type="curve" smooth="yes"/>
      <point x="358.484693877551" y="327.0"/>
      <point x="426" y="296"/>
      <point x="453" y="261" type="curve"/>
      <point x="431" y="231" type="line"/>
      <point x="381" y="246"/>
      <point x="319.2842722749506" y="252.98863924245953"/>
      <point x="257" y="252" type="curve" smooth="yes"/>
      <point x="192" y="251"/>
      <point x="137.0" y="246.0"/>
      <point x="134" y="161" type="curve" smooth="yes"/>
      <point x="131" y="81"/>
      <point x="180" y="68"/>
      <point x="256" y="68" type="curve"/>
      <point x="345.4362745098039" y="68.0"/>
      <point x="428" y="92"/>
      <point x="461" y="133" type="curve"/>
      <point x="473" y="82" type="line"/>
      <point x="413" y="91" type="line"/>
      <point x="376" y="1"/>
      <point x="299.8648648648649" y="-17.0"/>
    </contour>
    <contour>
      <point x="278" y="560" type="curve"/>
      <point x="446" y="560.0"/>
      <point x="490" y="505.53846153846155"/>
      <point x="490" y="324" type="curve" smooth="yes"/>
      <point x="490" y="55" type="line"/>
      <point x="459" y="105" type="line"/>
      <point x="550" y="64" type="line"/>
      <point x="550" y="4" type="line"/>
      <point x="410" y="-11" type="line"/>
      <point x="410" y="347" type="line" smooth="yes"/>
      <point x="410" y="443"/>
      <point x="375.0" y="469.0"/>
      <point x="286" y="469.0" type="curve"/>
      <point x="218.0" y="469.0"/>
      <point x="157.0" y="462.0"/>
      <point x="107" y="451" type="curve"/>
      <point x="107" y="517" type="line"/>
      <point x="156.43372539958716" y="546.8467775997508"/>
      <point x="228" y="560.0"/>
    </contour>
  </outline>
</glyph>
<glyph name="b" format="2">
  <advance width="568"/>
  <unicode hex="0062"/>
  <outline>
    <contour>
      <point x="312" y="-8" type="curve" smooth="yes"/>
      <point x="453" y="-8"/>
      <point x="518" y="69"/>
      <point x="518" y="280" type="curve" smooth="yes"/>
      <point x="518.0" y="461.0"/>
      <point x="470.0" y="554.0"/>
      <point x="338" y="558" type="curve"/>
      <point x="256.7473684210526" y="558.0"/>
      <point x="198" y="543"/>
      <point x="152" y="435" type="curve"/>
      <point x="142" y="407" type="line"/>
      <point x="167" y="440"/>
      <point x="222" y="463"/>
      <point x="308" y="463" type="curve" smooth="yes"/>
      <point x="399" y="463"/>
      <point x="438" y="421"/>
      <point x="438" y="279" type="curve" smooth="yes"/>
      <point x="438" y="118"/>
      <point x="388" y="85"/>
      <point x="305" y="85" type="curve" smooth="yes"/>
      <point x="224.0" y="85.0"/>
      <point x="158" y="97"/>
      <point x="124" y="136" type="curve"/>
      <point x="144" y="105" type="line"/>
      <point x="173" y="22"/>
      <point x="239.85882352941178" y="-8.0"/>
    </contour>
    <contour>
      <point x="74" y="705" type="line"/>
      <point x="74" y="156" type="line"/>
      <point x="74" y="137" type="line"/>
      <point x="74" y="0" type="line"/>
      <point x="130" y="0" type="line"/>
      <point x="153" y="94" type="line"/>
      <point x="155" y="93" type="line"/>
      <point x="155" y="775" type="line"/>
      <point x="14" y="751" type="line"/>
      <point x="14" y="691" type="line"/>
      <point x="106" y="660" type="line"/>
    </contour>
  </outline>
</glyph>
<glyph name="c" format="2">
  <advance width="517"/>
  <unicode hex="0063"/>
  <guideline y="367" identifier="UAA77kxnTa"/>
  <outline>
    <contour>
      <point x="290" y="82" type="curve"/>
      <point x="177" y="82"/>
      <point x="127" y="140"/>
      <point x="127" y="270" type="curve" smooth="yes"/>
      <point x="127" y="413"/>
      <point x="169" y="469"/>
      <point x="280" y="470" type="curve" smooth="yes"/>
      <point x="332.73495899847353" y="468.9858661731063"/>
      <point x="391" y="463"/>
      <point x="423" y="444" type="curve"/>
      <point x="375" y="491" type="line"/>
      <point x="390" y="346" type="line"/>
      <point x="457" y="346" type="line"/>
      <point x="457" y="522" type="line"/>
      <point x="426" y="546"/>
      <point x="360" y="560"/>
      <point x="283" y="560" type="curve"/>
      <point x="111" y="560"/>
      <point x="47" y="472"/>
      <point x="47" y="270" type="curve" smooth="yes"/>
      <point x="47" y="64"/>
      <point x="125" y="-12"/>
      <point x="279" y="-12" type="curve"/>
      <point x="346.0" y="-12.0"/>
      <point x="397" y="-6"/>
      <point x="462" y="23" type="curve"/>
      <point x="462" y="100" type="line"/>
      <point x="398" y="85"/>
      <point x="353" y="82"/>
    </contour>
  </outline>
</glyph>
<glyph name="d" format="2">
  <advance width="593"/>
  <unicode hex="0064"/>
  <outline>
    <contour>
      <point x="506" y="777" type="move"/>
      <point x="335" y="754" type="line"/>
      <point x="335" y="693" type="line"/>
      <point x="457" y="660" type="line"/>
      <point x="425" y="704" type="line"/>
      <point x="425" y="84" type="line"/>
      <point x="438" y="-11" type="line"/>
      <point x="566" y="4" type="line"/>
      <point x="566" y="64" type="line"/>
      <point x="475" y="104" type="line"/>
      <point x="506" y="55" type="line"/>
      <point x="506" y="760" type="line"/>
    </contour>
    <contour>
      <point x="251" y="-18" type="curve"/>
      <point x="356" y="-18"/>
      <point x="412" y="39"/>
      <point x="432" y="94" type="curve"/>
      <point x="387" y="81" type="line"/>
      <point x="496" y="81" type="line"/>
      <point x="481" y="166" type="line"/>
      <point x="448" y="88"/>
      <point x="370" y="75"/>
      <point x="274" y="75" type="curve" smooth="yes"/>
      <point x="183" y="75"/>
      <point x="134" y="115"/>
      <point x="134" y="260" type="curve" smooth="yes"/>
      <point x="134" y="429"/>
      <point x="184" y="463"/>
      <point x="282" y="463" type="curve" smooth="yes"/>
      <point x="380" y="463"/>
      <point x="440" y="438"/>
      <point x="474" y="372" type="curve"/>
      <point x="450" y="441" type="line"/>
      <point x="427" y="459" type="line"/>
      <point x="413" y="522"/>
      <point x="354" y="558"/>
      <point x="268" y="558" type="curve" smooth="yes"/>
      <point x="120" y="558"/>
      <point x="54" y="473"/>
      <point x="54" y="262" type="curve" smooth="yes"/>
      <point x="54" y="44"/>
      <point x="132" y="-18"/>
    </contour>
  </outline>
</glyph>
<glyph name="e" format="2">
  <advance width="553"/>
  <unicode hex="0065"/>
  <outline>
    <contour>
      <point x="278" y="471" type="curve" smooth="yes"/>
      <point x="393.0" y="471.0"/>
      <point x="417.42142219623844" y="442.9819994153651"/>
      <point x="412" y="321" type="curve" smooth="yes"/>
      <point x="410" y="276" type="line"/>
      <point x="438" y="305" type="line"/>
      <point x="94" y="305" type="line"/>
      <point x="92" y="240" type="line"/>
      <point x="491" y="240" type="line"/>
      <point x="494" y="311" type="line" smooth="yes"/>
      <point x="501.7328795246386" y="494.0114820831125"/>
      <point x="446.0" y="558.0"/>
      <point x="278" y="558" type="curve" smooth="yes"/>
      <point x="112" y="558"/>
      <point x="55" y="470"/>
      <point x="55" y="268" type="curve" smooth="yes"/>
      <point x="55.0" y="61.99999999999997"/>
      <point x="134.99170124481327" y="-14.0"/>
      <point x="293" y="-14" type="curve"/>
      <point x="368.24022346368713" y="-14.0"/>
      <point x="426" y="5"/>
      <point x="475" y="38" type="curve"/>
      <point x="475" y="103" type="line"/>
      <point x="413" y="88"/>
      <point x="369.1428571428571" y="80.0"/>
      <point x="304" y="80" type="curve"/>
      <point x="203.77906976744185" y="80.0"/>
      <point x="135.0" y="118.0"/>
      <point x="135" y="268" type="curve" smooth="yes"/>
      <point x="135" y="431"/>
      <point x="176" y="471"/>
    </contour>
  </outline>
</glyph>
<glyph name="f" format="2">
  <advance width="412"/>
  <unicode hex="0066"/>
  <outline>
    <contour>
      <point x="37" y="0" type="line"/>
      <point x="348" y="0" type="line"/>
      <point x="348" y="60" type="line"/>
      <point x="183" y="97" type="line"/>
      <point x="209" y="55" type="line"/>
      <point x="209" y="554" type="line" smooth="yes"/>
      <point x="209" y="655"/>
      <point x="230" y="672"/>
      <point x="305" y="672" type="curve" smooth="yes"/>
      <point x="342" y="672"/>
      <point x="399" y="668"/>
      <point x="435" y="663" type="curve"/>
      <point x="435" y="728" type="line"/>
      <point x="392" y="748"/>
      <point x="347" y="760"/>
      <point x="301" y="760" type="curve" smooth="yes"/>
      <point x="157" y="760"/>
      <point x="128" y="695"/>
      <point x="128" y="529" type="curve" smooth="yes"/>
      <point x="128" y="55" type="line"/>
      <point x="154" y="96" type="line"/>
      <point x="37" y="60" type="line"/>
    </contour>
    <contour>
      <point x="147" y="451" type="line"/>
      <point x="194" y="450" type="line"/>
      <point x="392" y="463" type="line"/>
      <point x="392" y="531" type="line"/>
      <point x="185" y="545" type="line"/>
      <point x="147" y="545" type="line"/>
      <point x="37" y="531" type="line"/>
      <point x="37" y="464" type="line"/>
    </contour>
  </outline>
</glyph>
<glyph name="g" format="2">
  <advance width="599"/>
  <unicode hex="0067"/>
  <outline>
    <contour>
      <point x="256" y="-16" type="curve" smooth="yes"/>
      <point x="365.0" y="-16.0"/>
      <point x="421" y="36"/>
      <point x="441" y="92" type="curve"/>
      <point x="405" y="84" type="line"/>
      <point x="491" y="84" type="line"/>
      <point x="489" y="166" type="line"/>
      <point x="457" y="90"/>
      <point x="381" y="77.0"/>
      <point x="287" y="77" type="curve" smooth="yes"/>
      <point x="193.0" y="77"/>
      <point x="143.0" y="119.0"/>
      <point x="143" y="270" type="curve" smooth="yes"/>
      <point x="143.0" y="433.0"/>
      <point x="194" y="465.0"/>
      <point x="295" y="465" type="curve" smooth="yes"/>
      <point x="385.0" y="465.0"/>
      <point x="440" y="440"/>
      <point x="472" y="377" type="curve"/>
      <point x="439" y="460" type="line"/>
      <point x="420" y="531"/>
      <point x="366.0" y="560.0"/>
      <point x="281" y="560" type="curve" smooth="yes"/>
      <point x="130.0" y="560.0"/>
      <point x="63.0" y="477.0"/>
      <point x="63" y="272" type="curve" smooth="yes"/>
      <point x="63.0" y="48.0"/>
      <point x="142" y="-16.0"/>
    </contour>
    <contour>
      <point x="438" y="55" type="line" smooth="yes"/>
      <point x="438" y="-121.0"/>
      <point x="357.66310160427804" y="-136.0"/>
      <point x="257" y="-136" type="curve" smooth="yes"/>
      <point x="213" y="-136.0"/>
      <point x="171" y="-132"/>
      <point x="120" y="-121" type="curve"/>
      <point x="120" y="-196" type="line"/>
      <point x="159" y="-212"/>
      <point x="218" y="-228.0"/>
      <point x="275" y="-228" type="curve" smooth="yes"/>
      <point x="415.0" y="-228.0"/>
      <point x="519" y="-176.54545454545456"/>
      <point x="519" y="55" type="curve" smooth="yes"/>
      <point x="519" y="543" type="line"/>
      <point x="463" y="543" type="line"/>
      <point x="435" y="457" type="line"/>
      <point x="438" y="452" type="line"/>
    </contour>
  </outline>
</glyph>
<glyph name="h" format="2">
  <advance width="610"/>
  <unicode hex="0068"/>
  <outline>
    <contour>
      <point x="176" y="775" type="line"/>
      <point x="35" y="751" type="line"/>
      <point x="35" y="691" type="line"/>
      <point x="126" y="660" type="line"/>
      <point x="95" y="702" type="line"/>
      <point x="95" y="56" type="line"/>
      <point x="123" y="98" type="line"/>
      <point x="35" y="60" type="line"/>
      <point x="35" y="0" type="line"/>
      <point x="249" y="0" type="line"/>
      <point x="249" y="60" type="line"/>
      <point x="148" y="96" type="line"/>
      <point x="176" y="56" type="line"/>
    </contour>
    <contour>
      <point x="576" y="60" type="line"/>
      <point x="489" y="99" type="line"/>
      <point x="516" y="56" type="line"/>
      <point x="516" y="363" type="line" smooth="yes"/>
      <point x="516" y="506"/>
      <point x="473" y="558"/>
      <point x="347" y="558" type="curve" smooth="yes"/>
      <point x="257.0" y="558.0"/>
      <point x="195" y="533"/>
      <point x="174" y="445" type="curve"/>
      <point x="141" y="434" type="line"/>
      <point x="126" y="378" type="line"/>
      <point x="172" y="441"/>
      <point x="236.78571428571428" y="464.0"/>
      <point x="324" y="464" type="curve" smooth="yes"/>
      <point x="409" y="464"/>
      <point x="436" y="436"/>
      <point x="436" y="349" type="curve" smooth="yes"/>
      <point x="436" y="56" type="line"/>
      <point x="464" y="96" type="line"/>
      <point x="363" y="60" type="line"/>
      <point x="363" y="0" type="line"/>
      <point x="576" y="0" type="line"/>
    </contour>
  </outline>
</glyph>
<glyph name="j" format="2">
  <advance width="330"/>
  <unicode hex="006A"/>
  <outline>
    <contour>
      <point x="153" y="487" type="line"/>
      <point x="153" y="-8" type="line" smooth="yes"/>
      <point x="153" y="-97"/>
      <point x="130" y="-125"/>
      <point x="51" y="-125" type="curve" smooth="yes"/>
      <point x="24" y="-125"/>
      <point x="-3" y="-122"/>
      <point x="-38" y="-116" type="curve"/>
      <point x="-38" y="-190" type="line"/>
      <point x="-2" y="-209"/>
      <point x="35" y="-219"/>
      <point x="82" y="-219" type="curve" smooth="yes"/>
      <point x="191" y="-219"/>
      <point x="234" y="-149"/>
      <point x="234" y="-13" type="curve" smooth="yes"/>
      <point x="234" y="557" type="line"/>
      <point x="21" y="535" type="line"/>
      <point x="21" y="469" type="line"/>
      <point x="186" y="438" type="line"/>
    </contour>
    <component base="dotaccent" xOffset="-79"/>
  </outline>
</glyph>
<glyph name="k" format="2">
  <advance width="583"/>
  <unicode hex="006B"/>
  <guideline y="322" identifier="HpFBe96kvZ"/>
  <outline>
    <contour>
      <point x="501" y="0" type="line"/>
      <point x="506" y="65" type="line"/>
      <point x="363" y="298" type="line"/>
      <point x="340" y="263" type="line"/>
      <point x="490" y="471" type="line"/>
      <point x="414" y="498" type="line"/>
      <point x="251" y="261" type="line"/>
      <point x="322" y="315" type="line"/>
      <point x="157" y="315" type="line"/>
      <point x="157" y="248" type="line"/>
      <point x="343" y="248" type="line"/>
      <point x="296" y="260" type="line"/>
      <point x="455" y="0" type="line"/>
    </contour>
    <contour>
      <point x="410" y="463" type="line"/>
      <point x="435" y="440" type="line"/>
      <point x="562" y="481" type="line"/>
      <point x="562" y="540" type="line"/>
      <point x="298" y="540" type="line"/>
      <point x="298" y="481" type="line"/>
    </contour>
    <contour>
      <point x="175" y="775" type="line"/>
      <point x="35" y="751" type="line"/>
      <point x="35" y="691" type="line"/>
      <point x="126" y="660" type="line"/>
      <point x="95" y="702" type="line"/>
      <point x="95" y="56" type="line"/>
      <point x="123" y="98" type="line"/>
      <point x="35" y="60" type="line"/>
      <point x="35" y="0" type="line"/>
      <point x="248" y="0" type="line"/>
      <point x="248" y="60" type="line"/>
      <point x="147" y="96" type="line"/>
      <point x="175" y="56" type="line"/>
    </contour>
    <contour>
      <point x="353" y="0" type="line"/>
      <point x="562" y="0" type="line"/>
      <point x="562" y="60" type="line"/>
      <point x="455" y="93" type="line"/>
      <point x="425" y="89" type="line"/>
      <point x="353" y="60" type="line"/>
    </contour>
  </outline>
</glyph>
<glyph name="m" format="2">
  <advance width="953"/>
  <unicode hex="006D"/>
  <guideline x="624" y="427" angle="0" identifier="56w6ZmYhrz"/>
  <outline>
    <contour>
      <point x="55" y="0" type="line"/>
      <point x="268" y="0" type="line"/>
      <point x="268" y="60" type="line"/>
      <point x="167" y="96" type="line"/>
      <point x="195" y="56" type="line"/>
      <point x="195" y="558" type="line"/>
      <point x="55" y="534" type="line"/>
      <point x="55" y="474" type="line"/>
      <point x="146" y="443" type="line"/>
      <point x="115" y="485" type="line"/>
      <point x="115" y="56" type="line"/>
      <point x="143" y="98" type="line"/>
      <point x="55" y="60" type="line"/>
    </contour>
    <contour>
      <point x="585" y="60" type="line"/>
      <point x="498" y="99" type="line"/>
      <point x="525" y="56" type="line"/>
      <point x="525" y="438" type="line"/>
      <point x="522" y="431" type="line"/>
      <point x="513" y="524"/>
      <point x="473" y="558"/>
      <point x="364" y="558" type="curve" smooth="yes"/>
      <point x="272.0" y="558.0"/>
      <point x="219" y="519"/>
      <point x="191" y="440" type="curve"/>
      <point x="141" y="424" type="line"/>
      <point x="141" y="378" type="line"/>
      <point x="187" y="440"/>
      <point x="255.77070063694268" y="465.0"/>
      <point x="332" y="465" type="curve" smooth="yes"/>
      <point x="416" y="465"/>
      <point x="445" y="437"/>
      <point x="445" y="356" type="curve"/>
      <point x="445" y="56" type="line"/>
      <point x="473" y="96" type="line"/>
      <point x="372" y="60" type="line"/>
      <point x="372" y="0" type="line"/>
      <point x="585" y="0" type="line"/>
    </contour>
    <contour>
      <point x="518" y="443" type="curve"/>
      <point x="455" y="419" type="line"/>
      <point x="473" y="377" type="line"/>
      <point x="519" y="440"/>
      <point x="582.1019108280254" y="465.0"/>
      <point x="662" y="465" type="curve" smooth="yes"/>
      <point x="746" y="465"/>
      <point x="775" y="437"/>
      <point x="775" y="356" type="curve"/>
      <point x="775" y="56" type="line"/>
      <point x="803" y="96" type="line"/>
      <point x="702" y="60" type="line"/>
      <point x="702" y="0" type="line"/>
      <point x="915" y="0" type="line"/>
      <point x="915" y="60" type="line"/>
      <point x="828" y="99" type="line"/>
      <point x="855" y="56" type="line"/>
      <point x="855" y="370" type="line"/>
      <point x="855" y="503"/>
      <point x="815" y="558"/>
      <point x="686" y="558" type="curve"/>
      <point x="604" y="559.0"/>
      <point x="547" y="533"/>
    </contour>
  </outline>
</glyph>
<glyph name="n" format="2">
  <advance width="626"/>
  <unicode hex="006E"/>
  <outline>
    <contour>
      <point x="52" y="0" type="line"/>
      <point x="265" y="0" type="line"/>
      <point x="265" y="60" type="line"/>
      <point x="164" y="96" type="line"/>
      <point x="192" y="56" type="line"/>
      <point x="192" y="558" type="line"/>
      <point x="52" y="534" type="line"/>
      <point x="52" y="474" type="line"/>
      <point x="143" y="443" type="line"/>
      <point x="112" y="485" type="line"/>
      <point x="112" y="56" type="line"/>
      <point x="140" y="98" type="line"/>
      <point x="52" y="60" type="line"/>
    </contour>
    <contour>
      <point x="592" y="60" type="line"/>
      <point x="505" y="99" type="line"/>
      <point x="532" y="56" type="line"/>
      <point x="532" y="363" type="line" smooth="yes"/>
      <point x="532" y="506.0"/>
      <point x="489" y="558.0"/>
      <point x="368" y="558.0" type="curve" smooth="yes"/>
      <point x="276" y="558.0"/>
      <point x="218" y="532"/>
      <point x="188" y="441" type="curve"/>
      <point x="158" y="420" type="line"/>
      <point x="212" y="450"/>
      <point x="287" y="464"/>
      <point x="340" y="464" type="curve" smooth="yes"/>
      <point x="425" y="464"/>
      <point x="452" y="436"/>
      <point x="452" y="349" type="curve" smooth="yes"/>
      <point x="452" y="56" type="line"/>
      <point x="480" y="96" type="line"/>
      <point x="379" y="60" type="line"/>
      <point x="379" y="0" type="line"/>
      <point x="592" y="0" type="line"/>
    </contour>
  </outline>
</glyph>
<glyph name="o" format="2">
  <advance width="570"/>
  <unicode hex="006F"/>
  <outline>
    <contour>
      <point x="287" y="-15" type="curve" smooth="yes"/>
      <point x="454" y="-15"/>
      <point x="521" y="68"/>
      <point x="521" y="270" type="curve" smooth="yes"/>
      <point x="521" y="475"/>
      <point x="454" y="559"/>
      <point x="287" y="559" type="curve" smooth="yes"/>
      <point x="120" y="559"/>
      <point x="53" y="475"/>
      <point x="53" y="270" type="curve" smooth="yes"/>
      <point x="53" y="68"/>
      <point x="120" y="-15"/>
    </contour>
    <contour>
      <point x="287" y="73" type="curve" smooth="yes"/>
      <point x="171" y="73"/>
      <point x="135" y="118"/>
      <point x="135" y="270" type="curve" smooth="yes"/>
      <point x="135" y="425"/>
      <point x="171" y="471"/>
      <point x="287" y="471" type="curve" smooth="yes"/>
      <point x="403" y="471"/>
      <point x="439" y="425"/>
      <point x="439" y="270" type="curve" smooth="yes"/>
      <point x="439" y="118"/>
      <point x="403" y="73"/>
    </contour>
  </outline>
</glyph>
<glyph name="p" format="2">
  <advance width="600"/>
  <unicode hex="0070"/>
  <outline>
    <contour>
      <point x="97" y="485" type="line"/>
      <point x="97" y="-167" type="line"/>
      <point x="129" y="-116" type="line"/>
      <point x="37" y="-150" type="line"/>
      <point x="37" y="-210" type="line"/>
      <point x="317" y="-210" type="line"/>
      <point x="317" y="-150" type="line"/>
      <point x="145" y="-114" type="line"/>
      <point x="177" y="-167" type="line"/>
      <point x="177" y="558" type="line"/>
      <point x="37" y="534" type="line"/>
      <point x="37" y="474" type="line"/>
      <point x="128" y="443" type="line"/>
    </contour>
    <contour>
      <point x="334" y="-8" type="curve" smooth="yes"/>
      <point x="487" y="-8"/>
      <point x="546" y="72"/>
      <point x="546" y="280" type="curve" smooth="yes"/>
      <point x="546.0" y="462.0"/>
      <point x="502" y="562.0"/>
      <point x="355" y="562" type="curve" smooth="yes"/>
      <point x="268" y="562.0"/>
      <point x="199" y="530"/>
      <point x="167" y="441" type="curve"/>
      <point x="199" y="453" type="line"/>
      <point x="135" y="453" type="line"/>
      <point x="137" y="418" type="line"/>
      <point x="178" y="453"/>
      <point x="244" y="465"/>
      <point x="330" y="465" type="curve"/>
      <point x="432" y="465"/>
      <point x="466" y="423"/>
      <point x="466" y="279" type="curve" smooth="yes"/>
      <point x="466" y="118"/>
      <point x="421" y="85"/>
      <point x="322" y="85" type="curve" smooth="yes"/>
      <point x="243" y="85"/>
      <point x="184" y="90"/>
      <point x="147" y="128" type="curve"/>
      <point x="174" y="99" type="line"/>
      <point x="183" y="31"/>
      <point x="245" y="-8"/>
    </contour>
  </outline>
</glyph>
<glyph name="q" format="2">
  <advance width="581"/>
  <unicode hex="0071"/>
  <outline>
    <contour>
      <point x="477" y="385" type="line"/>
      <point x="493" y="385" type="line"/>
      <point x="493" y="521" type="line"/>
      <point x="477" y="521" type="line"/>
    </contour>
    <contour>
      <point x="424" y="-155" type="line"/>
      <point x="465" y="-114" type="line"/>
      <point x="293" y="-150" type="line"/>
      <point x="293" y="-210" type="line"/>
      <point x="573" y="-210" type="line"/>
      <point x="573" y="-150" type="line"/>
      <point x="481" y="-116" type="line"/>
      <point x="504" y="-167" type="line"/>
      <point x="504" y="543" type="line"/>
      <point x="450" y="543" type="line"/>
      <point x="422" y="456" type="line"/>
      <point x="424" y="445" type="line"/>
    </contour>
    <contour>
      <point x="241" y="-18" type="curve" smooth="yes"/>
      <point x="343.4635416666667" y="-18.0"/>
      <point x="405" y="23"/>
      <point x="432" y="89" type="curve"/>
      <point x="378" y="78" type="line"/>
      <point x="487" y="78" type="line"/>
      <point x="480" y="164" type="line"/>
      <point x="447" y="87"/>
      <point x="354" y="75"/>
      <point x="272" y="75" type="curve" smooth="yes"/>
      <point x="180" y="75"/>
      <point x="131" y="117"/>
      <point x="131" y="270" type="curve" smooth="yes"/>
      <point x="131" y="433"/>
      <point x="181" y="465"/>
      <point x="280" y="465" type="curve" smooth="yes"/>
      <point x="341" y="465"/>
      <point x="417" y="452"/>
      <point x="467" y="420" type="curve"/>
      <point x="466" y="436" type="line"/>
      <point x="427" y="464" type="line"/>
      <point x="404" y="533"/>
      <point x="352" y="560"/>
      <point x="267" y="560" type="curve" smooth="yes"/>
      <point x="117" y="560"/>
      <point x="51" y="477"/>
      <point x="51" y="272" type="curve" smooth="yes"/>
      <point x="51" y="46"/>
      <point x="129" y="-18"/>
    </contour>
  </outline>
</glyph>
<glyph name="r" format="2">
  <advance width="489"/>
  <unicode hex="0072"/>
  <guideline y="367" identifier="hZdkM4WIfc"/>
  <outline>
    <contour>
      <point x="375" y="352" type="line"/>
      <point x="445" y="352" type="line"/>
      <point x="449" y="470" type="line"/>
      <point x="449" y="542" type="line"/>
      <point x="430" y="552"/>
      <point x="397" y="565"/>
      <point x="351" y="565" type="curve" smooth="yes"/>
      <point x="288" y="565"/>
      <point x="208" y="529"/>
      <point x="185" y="450" type="curve"/>
      <point x="232" y="464" type="line"/>
      <point x="160" y="464" type="line"/>
      <point x="153" y="408" type="line"/>
      <point x="182" y="454"/>
      <point x="261" y="466"/>
      <point x="317" y="466" type="curve" smooth="yes"/>
      <point x="338" y="466"/>
      <point x="384" y="465"/>
      <point x="414" y="455" type="curve"/>
      <point x="365" y="496" type="line"/>
    </contour>
    <contour>
      <point x="50" y="0" type="line"/>
      <point x="333" y="0" type="line"/>
      <point x="333" y="61" type="line"/>
      <point x="162" y="99" type="line"/>
      <point x="190" y="56" type="line"/>
      <point x="190" y="558" type="line"/>
      <point x="50" y="534" type="line"/>
      <point x="50" y="474" type="line"/>
      <point x="141" y="443" type="line"/>
      <point x="110" y="485" type="line"/>
      <point x="110" y="56" type="line"/>
      <point x="138" y="98" type="line"/>
      <point x="50" y="60" type="line"/>
    </contour>
  </outline>
</glyph>
<glyph name="s" format="2">
  <advance width="512"/>
  <unicode hex="0073"/>
  <outline>
    <contour>
      <point x="391" y="460" type="move"/>
      <point x="364" y="490" type="line"/>
      <point x="374" y="400" type="line"/>
      <point x="429" y="399" type="line"/>
      <point x="438" y="526" type="line"/>
      <point x="387" y="549"/>
      <point x="330" y="560"/>
      <point x="267" y="560" type="curve" smooth="yes"/>
      <point x="135" y="560"/>
      <point x="66" y="518"/>
      <point x="66" y="399" type="curve" smooth="yes"/>
      <point x="66" y="295"/>
      <point x="119" y="246"/>
      <point x="239" y="237" type="curve" smooth="yes"/>
      <point x="253" y="236" type="line" smooth="yes"/>
      <point x="355" y="229"/>
      <point x="378" y="222"/>
      <point x="378" y="159" type="curve" smooth="yes"/>
      <point x="378" y="92"/>
      <point x="342" y="71"/>
      <point x="254" y="71" type="curve" smooth="yes"/>
      <point x="199" y="71"/>
      <point x="155" y="81"/>
      <point x="109" y="107" type="curve"/>
      <point x="130" y="69" type="line"/>
      <point x="123" y="157" type="line"/>
      <point x="62" y="158" type="line"/>
      <point x="52" y="39" type="line"/>
      <point x="97" y="7"/>
      <point x="166" y="-13"/>
      <point x="254" y="-13" type="curve" smooth="yes"/>
      <point x="348" y="-13"/>
      <point x="458" y="16"/>
      <point x="458" y="157" type="curve" smooth="yes"/>
      <point x="458" y="258"/>
      <point x="416" y="296"/>
      <point x="279" y="306" type="curve" smooth="yes"/>
      <point x="265" y="307" type="line" smooth="yes"/>
      <point x="179" y="313"/>
      <point x="146" y="331"/>
      <point x="146" y="394" type="curve" smooth="yes"/>
      <point x="146" y="454"/>
      <point x="176" y="478"/>
      <point x="256" y="478" type="curve" smooth="yes"/>
      <point x="315" y="478"/>
      <point x="352" y="474"/>
      <point x="391" y="460" type="curve"/>
    </contour>
  </outline>
</glyph>
<glyph name="t" format="2">
  <advance width="422"/>
  <unicode hex="0074"/>
  <outline>
    <contour>
      <point x="137" y="450" type="line"/>
      <point x="183" y="450" type="line"/>
      <point x="369" y="468" type="line"/>
      <point x="369" y="533" type="line"/>
      <point x="176" y="544" type="line"/>
      <point x="138" y="544" type="line"/>
      <point x="25" y="530" type="line"/>
      <point x="25" y="465" type="line"/>
    </contour>
    <contour>
      <point x="259" y="-14" type="curve" smooth="yes"/>
      <point x="304" y="-14"/>
      <point x="352" y="-5"/>
      <point x="389" y="16" type="curve"/>
      <point x="389" y="87" type="line"/>
      <point x="350" y="82"/>
      <point x="324" y="80"/>
      <point x="285" y="80" type="curve" smooth="yes"/>
      <point x="219" y="80"/>
      <point x="193" y="98"/>
      <point x="193" y="176" type="curve" smooth="yes"/>
      <point x="193" y="480" type="line"/>
      <point x="201" y="501" type="line"/>
      <point x="190" y="656" type="line"/>
      <point x="123" y="656" type="line"/>
      <point x="108" y="500" type="line"/>
      <point x="113" y="480" type="line"/>
      <point x="113" y="139" type="line" smooth="yes"/>
      <point x="113" y="30"/>
      <point x="166" y="-14"/>
    </contour>
  </outline>
</glyph>
<glyph name="u" format="2">
	<advance width="610"/>
	<unicode hex="0075"/>
	<outline>
		<contour>
			<point x="513" y="558" type="line"/>
			<point x="353" y="535" type="line"/>
			<point x="353" y="473" type="line"/>
			<point x="464" y="435" type="line"/>
			<point x="433" y="502" type="line"/>
			<point x="433" y="-11" type="line"/>
			<point x="573" y="4" type="line"/>
			<point x="573" y="64" type="line"/>
			<point x="482" y="104" type="line"/>
			<point x="513" y="55" type="line"/>
			<point x="513" y="432" type="line"/>
			<point x="513" y="441" type="line"/>
		</contour>
		<contour>
			<point x="92" y="175" type="line" smooth="yes"/>
			<point x="92" y="39"/>
			<point x="141" y="-18"/>
			<point x="258" y="-18" type="curve" smooth="yes"/>
			<point x="353" y="-18"/>
			<point x="394" y="12"/>
			<point x="412" y="97" type="curve"/>
			<point x="373" y="73" type="line"/>
			<point x="463" y="73" type="line"/>
			<point x="453" y="162" type="line"/>
			<point x="410" y="104"/>
			<point x="358" y="76"/>
			<point x="282" y="76" type="curve" smooth="yes"/>
			<point x="200" y="76"/>
			<point x="172" y="104"/>
			<point x="172" y="191" type="curve" smooth="yes"/>
			<point x="172" y="558" type="line"/>
			<point x="32" y="534" type="line"/>
			<point x="32" y="474" type="line"/>
			<point x="92" y="454" type="line"/>
		</contour>
	</outline>
</glyph>
<glyph name="v" format="2">
  <advance width="574"/>
  <unicode hex="0076"/>
  <outline>
    <contour>
      <point x="103" y="456" type="line"/>
      <point x="223" y="480" type="line"/>
      <point x="223" y="540" type="line"/>
      <point x="-22" y="540" type="line"/>
      <point x="-22" y="480" type="line"/>
      <point x="83" y="451" type="line"/>
    </contour>
    <contour>
      <point x="462" y="456" type="line"/>
      <point x="482" y="451" type="line"/>
      <point x="587" y="480" type="line"/>
      <point x="587" y="540" type="line"/>
      <point x="344" y="540" type="line"/>
      <point x="344" y="480" type="line"/>
    </contour>
    <contour>
      <point x="438" y="490" type="line"/>
      <point x="262" y="43" type="line"/>
      <point x="294" y="45" type="line"/>
      <point x="125" y="490" type="line"/>
      <point x="40" y="478" type="line"/>
      <point x="220" y="0" type="line"/>
      <point x="331" y="0" type="line"/>
      <point x="520" y="483" type="line"/>
    </contour>
  </outline>
</glyph>
<glyph name="w" format="2">
  <advance width="845"/>
  <unicode hex="0077"/>
  <outline>
    <contour>
      <point x="112" y="449" type="line"/>
      <point x="272" y="480" type="line"/>
      <point x="272" y="540" type="line"/>
      <point x="17" y="540" type="line"/>
      <point x="17" y="480" type="line"/>
      <point x="92" y="451" type="line"/>
    </contour>
    <contour>
      <point x="720" y="449" type="line"/>
      <point x="740" y="451" type="line"/>
      <point x="845" y="480" type="line"/>
      <point x="845" y="540" type="line"/>
      <point x="590" y="540" type="line"/>
      <point x="590" y="480" type="line"/>
    </contour>
    <contour>
      <point x="669" y="0" type="line"/>
      <point x="770" y="481" type="line"/>
      <point x="689" y="481" type="line"/>
      <point x="599" y="59" type="line"/>
      <point x="632" y="87" type="line"/>
      <point x="552" y="87" type="line"/>
      <point x="611" y="67" type="line"/>
      <point x="482" y="448" type="line"/>
      <point x="384" y="448" type="line"/>
      <point x="251" y="59" type="line"/>
      <point x="297" y="87" type="line"/>
      <point x="210" y="87" type="line"/>
      <point x="267" y="68" type="line"/>
      <point x="169" y="494" type="line"/>
      <point x="92" y="481" type="line"/>
      <point x="205" y="0" type="line"/>
      <point x="309" y="0" type="line"/>
      <point x="451" y="432" type="line"/>
      <point x="410" y="432" type="line"/>
      <point x="552" y="0" type="line"/>
    </contour>
    <contour>
      <point x="474" y="350" type="line"/>
      <point x="474" y="435" type="line"/>
      <point x="398" y="435" type="line"/>
      <point x="398" y="350" type="line"/>
    </contour>
  </outline>
</glyph>
<glyph name="x" format="2">
  <advance width="579"/>
  <unicode hex="0078"/>
  <guideline x="408" y="268" angle="0"/>
  <outline>
    <contour>
      <point x="129" y="449" type="line"/>
      <point x="252" y="480" type="line"/>
      <point x="252" y="540" type="line"/>
      <point x="120" y="546" type="line"/>
      <point x="14" y="540" type="line"/>
      <point x="14" y="480" type="line"/>
      <point x="109" y="451" type="line"/>
    </contour>
    <contour>
      <point x="433" y="449" type="line"/>
      <point x="453" y="451" type="line"/>
      <point x="548" y="480" type="line"/>
      <point x="548" y="540" type="line"/>
      <point x="455" y="546" type="line"/>
      <point x="310" y="540" type="line"/>
      <point x="310" y="480" type="line"/>
    </contour>
    <contour>
      <point x="444" y="90" type="line"/>
      <point x="314" y="59" type="line"/>
      <point x="314" y="-1" type="line"/>
      <point x="559" y="-1" type="line"/>
      <point x="559" y="59" type="line"/>
      <point x="464" y="88" type="line"/>
    </contour>
    <contour>
      <point x="113" y="90" type="line"/>
      <point x="93" y="88" type="line"/>
      <point x="3" y="59" type="line"/>
      <point x="3" y="-1" type="line"/>
      <point x="248" y="-1" type="line"/>
      <point x="248" y="59" type="line"/>
    </contour>
    <contour>
      <point x="134" y="30" type="line"/>
      <point x="300" y="259" type="line"/>
      <point x="324" y="243" type="line"/>
      <point x="511" y="504" type="line"/>
      <point x="425" y="504" type="line"/>
      <point x="278" y="296" type="line"/>
      <point x="247" y="303" type="line"/>
      <point x="46" y="30" type="line"/>
    </contour>
    <contour>
      <point x="414" y="30" type="line"/>
      <point x="515" y="30" type="line"/>
      <point x="303" y="313" type="line"/>
      <point x="258" y="242" type="line"/>
    </contour>
    <contour>
      <point x="288" y="298" type="line"/>
      <point x="140" y="504" type="line"/>
      <point x="49" y="504" type="line"/>
      <point x="235" y="248" type="line"/>
    </contour>
    <contour>
      <point x="247" y="225" type="line"/>
      <point x="314" y="225" type="line"/>
      <point x="314" y="292" type="line"/>
      <point x="245" y="312" type="line"/>
    </contour>
    <contour>
      <point x="241" y="215" type="line"/>
      <point x="316" y="215" type="line"/>
      <point x="317" y="315" type="line"/>
      <point x="242" y="315" type="line"/>
    </contour>
  </outline>
</glyph>
<glyph name="y" format="2">
  <advance width="582"/>
  <unicode hex="0079"/>
  <outline>
    <contour>
      <point x="22" y="-193" type="line"/>
      <point x="56" y="-210"/>
      <point x="88" y="-223.0"/>
      <point x="137" y="-223.0" type="curve" smooth="yes"/>
      <point x="221" y="-223.0"/>
      <point x="274.1151584690051" y="-191.93852686286593"/>
      <point x="327" y="-55" type="curve" smooth="yes"/>
      <point x="534" y="481" type="line"/>
      <point x="510" y="455" type="line"/>
      <point x="599" y="480" type="line"/>
      <point x="599" y="540" type="line"/>
      <point x="508" y="545" type="line"/>
      <point x="454" y="545" type="line"/>
      <point x="364" y="540" type="line"/>
      <point x="364" y="480" type="line"/>
      <point x="467" y="460" type="line"/>
      <point x="452" y="484" type="line"/>
      <point x="259" y="-11" type="line" smooth="yes"/>
      <point x="222" y="-106"/>
      <point x="203" y="-139.0"/>
      <point x="128" y="-139" type="curve" smooth="yes"/>
      <point x="98" y="-139.0"/>
      <point x="72" y="-137"/>
      <point x="22" y="-129" type="curve"/>
    </contour>
    <contour>
      <point x="43" y="484" type="line"/>
      <point x="216" y="-14" type="line"/>
      <point x="273" y="-14" type="line"/>
      <point x="310" y="-21" type="line"/>
      <point x="134" y="484" type="line"/>
      <point x="129" y="460" type="line"/>
      <point x="231" y="480" type="line"/>
      <point x="231" y="540" type="line"/>
      <point x="134" y="545" type="line"/>
      <point x="82" y="545" type="line"/>
      <point x="-16" y="539" type="line"/>
      <point x="-16" y="480" type="line"/>
      <point x="86" y="455" type="line"/>
    </contour>
  </outline>
</glyph>
<glyph name="z" format="2">
  <advance width="521"/>
  <unicode hex="007A"/>
  <guideline y="189" identifier="B2iO38OzkW"/>
  <outline>
    <contour>
      <point x="59" y="90" type="line"/>
      <point x="59" y="0" type="line"/>
      <point x="479" y="0" type="line"/>
      <point x="479" y="190" type="line"/>
      <point x="417" y="190" type="line"/>
      <point x="402" y="56" type="line"/>
      <point x="443" y="84" type="line"/>
      <point x="103" y="84" type="line"/>
      <point x="109" y="38" type="line"/>
      <point x="476" y="449" type="line"/>
      <point x="476" y="540" type="line"/>
      <point x="71" y="540" type="line"/>
      <point x="71" y="354" type="line"/>
      <point x="135" y="354" type="line"/>
      <point x="147" y="501" type="line"/>
      <point x="109" y="457" type="line"/>
      <point x="426" y="457" type="line"/>
      <point x="422" y="493" type="line"/>
    </contour>
    <contour>
      <point x="75" y="17" type="line"/>
      <point x="135" y="49" type="line"/>
      <point x="135" y="118" type="line"/>
      <point x="75" y="86" type="line"/>
    </contour>
  </outline>
</glyph>
<glyph name="acute" format="2">
  <advance width="506"/>
  <unicode hex="00B4"/>
  <guideline x="250" y="364" angle="90" identifier="BPFIs9tt5V"/>
  <outline>
    <contour>
      <point x="137" y="669" type="line"/>
      <point x="188" y="629" type="line"/>
      <point x="357" y="790" type="line"/>
      <point x="277" y="859" type="line"/>
    </contour>
  </outline>
</glyph>
<glyph name="Udieresis" format="2">
	<advance width="793"/>
	<unicode hex="00DC"/>
	<outline>
		<contour>
			<point x="586" y="928" type="curve" smooth="yes"/>
			<point x="586" y="982"/>
			<point x="573" y="995"/>
			<point x="519" y="995" type="curve"/>
			<point x="464" y="995"/>
			<point x="452" y="982"/>
			<point x="452" y="928" type="curve" smooth="yes"/>
			<point x="452" y="875"/>
			<point x="464" y="861"/>
			<point x="519" y="861" type="curve"/>
			<point x="573" y="861"/>
			<point x="586" y="875"/>
		</contour>
		<contour>
			<point x="333" y="928" type="curve" smooth="yes"/>
			<point x="333" y="982"/>
			<point x="320" y="995"/>
			<point x="266" y="995" type="curve"/>
			<point x="212" y="995"/>
			<point x="199" y="982"/>
			<point x="199" y="928" type="curve" smooth="yes"/>
			<point x="199" y="875"/>
			<point x="212" y="861"/>
			<point x="266" y="861" type="curve"/>
			<point x="320" y="861"/>
			<point x="333" y="875"/>
		</contour>
		<component base="U"/>
	</outline>
</glyph>
<glyph name="ntilde" format="2">
  <advance width="626"/>
  <unicode hex="00F1"/>
  <outline>
    <contour>
      <point x="52" y="0" type="line"/>
      <point x="265" y="0" type="line"/>
      <point x="265" y="60" type="line"/>
      <point x="164" y="96" type="line"/>
      <point x="192" y="56" type="line"/>
      <point x="192" y="558" type="line"/>
      <point x="52" y="534" type="line"/>
      <point x="52" y="474" type="line"/>
      <point x="143" y="443" type="line"/>
      <point x="112" y="485" type="line"/>
      <point x="112" y="56" type="line"/>
      <point x="140" y="98" type="line"/>
      <point x="52" y="60" type="line"/>
    </contour>
    <contour>
      <point x="892" y="-40" type="line"/>
      <point x="805" y="-1" type="line"/>
      <point x="832" y="-44" type="line"/>
      <point x="832" y="263" type="line" smooth="yes"/>
      <point x="832" y="406"/>
      <point x="489" y="558"/>
      <point x="369" y="558" type="curve" smooth="yes"/>
      <point x="271" y="558"/>
      <point x="230" y="528"/>
      <point x="213" y="443" type="curve"/>
      <point x="252" y="470" type="line"/>
      <point x="162" y="470" type="line"/>
      <point x="172" y="378" type="line"/>
      <point x="215" y="436"/>
      <point x="266" y="464"/>
      <point x="340" y="464" type="curve" smooth="yes"/>
      <point x="425" y="464"/>
      <point x="752" y="336"/>
      <point x="752" y="249" type="curve" smooth="yes"/>
      <point x="752" y="-44" type="line"/>
      <point x="780" y="-4" type="line"/>
      <point x="679" y="-40" type="line"/>
      <point x="679" y="-100" type="line"/>
      <point x="892" y="-100" type="line"/>
    </contour>
    <contour>
      <point x="147" y="643" type="line"/>
      <point x="200" y="643" type="line"/>
      <point x="211" y="722" type="line"/>
      <point x="183" y="682" type="line"/>
      <point x="196" y="698"/>
      <point x="213" y="713"/>
      <point x="238" y="713" type="curve" smooth="yes"/>
      <point x="285" y="713"/>
      <point x="314" y="640"/>
      <point x="389" y="640" type="curve" smooth="yes"/>
      <point x="452" y="640"/>
      <point x="478" y="667"/>
      <point x="478" y="722" type="curve" smooth="yes"/>
      <point x="478" y="778" type="line"/>
      <point x="425" y="778" type="line"/>
      <point x="414" y="699" type="line"/>
      <point x="426" y="738" type="line"/>
      <point x="419" y="722"/>
      <point x="412" y="708"/>
      <point x="388" y="708" type="curve" smooth="yes"/>
      <point x="341" y="708"/>
      <point x="311" y="781"/>
      <point x="235" y="781" type="curve" smooth="yes"/>
      <point x="173" y="781"/>
      <point x="147" y="754"/>
      <point x="147" y="699" type="curve" smooth="yes"/>
    </contour>
  </outline>
</glyph>
<glyph name="dotlessi" format="2">
	<advance width="326"/>
	<unicode hex="0131"/>
	<outline>
		<contour>
			<point x="52" y="0" type="line"/>
			<point x="272" y="0" type="line"/>
			<point x="272" y="60" type="line"/>
			<point x="174" y="95" type="line"/>
			<point x="202" y="56" type="line"/>
			<point x="202" y="558" type="line"/>
			<point x="52" y="534" type="line"/>
			<point x="52" y="474" type="line"/>
			<point x="153" y="443" type="line"/>
			<point x="122" y="485" type="line"/>
			<point x="122" y="56" type="line"/>
			<point x="150" y="97" type="line"/>
			<point x="52" y="60" type="line"/>
		</contour>
	</outline>
</glyph>
<glyph name="dotaccent" format="2">
	<advance width="506"/>
	<unicode hex="02D9"/>
	<outline>
		<contour>
			<point x="317" y="731" type="curve" smooth="yes"/>
			<point x="317" y="782"/>
			<point x="305" y="794"/>
			<point x="253" y="794" type="curve"/>
			<point x="201" y="794"/>
			<point x="189" y="782"/>
			<point x="189" y="731" type="curve" smooth="yes"/>
			<point x="189" y="681"/>
			<point x="201" y="668"/>
			<point x="253" y="668" type="curve"/>
			<point x="305" y="668"/>
			<point x="317" y="681"/>
		</contour>
	</outline>
</glyph>
<glyph name="tilde" format="2">
	<advance width="446"/>
	<unicode hex="02DC"/>
	<outline>
		<contour>
			<point x="54" y="643" type="line"/>
			<point x="107" y="643" type="line"/>
			<point x="118" y="722" type="line"/>
			<point x="90" y="682" type="line"/>
			<point x="103" y="698"/>
			<point x="120" y="713"/>
			<point x="145" y="713" type="curve" smooth="yes"/>
			<point x="192" y="713"/>
			<point x="221" y="640"/>
			<point x="296" y="640" type="curve" smooth="yes"/>
			<point x="359" y="640"/>
			<point x="385" y="667"/>
			<point x="385" y="722" type="curve" smooth="yes"/>
			<point x="385" y="778" type="line"/>
			<point x="332" y="778" type="line"/>
			<point x="321" y="699" type="line"/>
			<point x="333" y="738" type="line"/>
			<point x="326" y="722"/>
			<point x="319" y="708"/>
			<point x="295" y="708" type="curve" smooth="yes"/>
			<point x="248" y="708"/>
			<point x="218" y="781"/>
			<point x="142" y="781" type="curve" smooth="yes"/>
			<point x="80" y="781"/>
			<point x="54" y="754"/>
			<point x="54" y="699" type="curve" smooth="yes"/>
		</contour>
	</outline>
</glyph>
<glyph name=".notdef" format="2">
	<advance width="742"/>
	<outline>
		<contour>
			<point x="288" y="456" type="curve" smooth="yes"/>
			<point x="321" y="456"/>
			<point x="327" y="465"/>
			<point x="327" y="508" type="curve" smooth="yes"/>
			<point x="327" y="553"/>
			<point x="321" y="559"/>
			<point x="288" y="559" type="curve"/>
			<point x="253" y="559"/>
			<point x="247" y="553"/>
			<point x="247" y="508" type="curve" smooth="yes"/>
			<point x="247" y="465"/>
			<point x="253" y="456"/>
		</contour>
		<contour>
			<point x="449" y="456" type="curve" smooth="yes"/>
			<point x="481" y="456"/>
			<point x="487" y="465"/>
			<point x="487" y="508" type="curve" smooth="yes"/>
			<point x="487" y="553"/>
			<point x="481" y="559"/>
			<point x="449" y="559" type="curve"/>
			<point x="413" y="559"/>
			<point x="407" y="553"/>
			<point x="407" y="508" type="curve" smooth="yes"/>
			<point x="407" y="465"/>
			<point x="413" y="456"/>
		</contour>
		<contour>
			<point x="253" y="126" type="curve" smooth="yes"/>
			<point x="276" y="126"/>
			<point x="279" y="131"/>
			<point x="279" y="168" type="curve" smooth="yes"/>
			<point x="279" y="204"/>
			<point x="276" y="209"/>
			<point x="253" y="209" type="curve"/>
			<point x="228" y="209"/>
			<point x="225" y="204"/>
			<point x="225" y="168" type="curve" smooth="yes"/>
			<point x="225" y="131"/>
			<point x="228" y="126"/>
		</contour>
		<contour>
			<point x="333" y="126" type="curve" smooth="yes"/>
			<point x="356" y="126"/>
			<point x="359" y="131"/>
			<point x="359" y="168" type="curve" smooth="yes"/>
			<point x="359" y="204"/>
			<point x="356" y="209"/>
			<point x="333" y="209" type="curve"/>
			<point x="308" y="209"/>
			<point x="305" y="204"/>
			<point x="305" y="168" type="curve" smooth="yes"/>
			<point x="305" y="131"/>
			<point x="308" y="126"/>
		</contour>
		<contour>
			<point x="413" y="126" type="curve" smooth="yes"/>
			<point x="436" y="126"/>
			<point x="439" y="131"/>
			<point x="439" y="168" type="curve" smooth="yes"/>
			<point x="439" y="204"/>
			<point x="436" y="209"/>
			<point x="413" y="209" type="curve"/>
			<point x="388" y="209"/>
			<point x="385" y="204"/>
			<point x="385" y="168" type="curve" smooth="yes"/>
			<point x="385" y="131"/>
			<point x="388" y="126"/>
		</contour>
		<contour>
			<point x="493" y="126" type="curve" smooth="yes"/>
			<point x="516" y="126"/>
			<point x="519" y="131"/>
			<point x="519" y="168" type="curve" smooth="yes"/>
			<point x="519" y="204"/>
			<point x="516" y="209"/>
			<point x="493" y="209" type="curve"/>
			<point x="468" y="209"/>
			<point x="465" y="204"/>
			<point x="465" y="168" type="curve" smooth="yes"/>
			<point x="465" y="131"/>
			<point x="468" y="126"/>
		</contour>
		<contour>
			<point x="580" y="106" type="curve" smooth="yes"/>
			<point x="501" y="333" type="line"/>
			<point x="531" y="302" type="line"/>
			<point x="407" y="302" type="line"/>
			<point x="396" y="337" type="line"/>
			<point x="395" y="342"/>
			<point x="403" y="349"/>
			<point x="408" y="349" type="curve"/>
			<point x="587" y="355"/>
			<point x="555" y="451"/>
			<point x="555" y="519" type="curve" smooth="yes"/>
			<point x="555" y="643"/>
			<point x="504" y="689"/>
			<point x="364" y="689" type="curve"/>
			<point x="228" y="689"/>
			<point x="179" y="643"/>
			<point x="179" y="519" type="curve" smooth="yes"/>
			<point x="179" y="386"/>
			<point x="192" y="350"/>
			<point x="340" y="349" type="curve"/>
			<point x="343" y="349"/>
			<point x="348" y="345"/>
			<point x="347" y="342" type="curve" smooth="yes"/>
			<point x="334" y="302" type="line"/>
			<point x="203" y="302" type="line"/>
			<point x="233" y="333" type="line"/>
			<point x="148" y="88" type="line" smooth="yes"/>
			<point x="143" y="73"/>
			<point x="146" y="66"/>
			<point x="160" y="66" type="curve" smooth="yes"/>
			<point x="559" y="66" type="line" smooth="yes"/>
			<point x="592" y="66"/>
			<point x="593" y="69"/>
		</contour>
		<contour>
			<point x="369" y="0" type="line"/>
			<point x="165" y="0" type="line" smooth="yes"/>
			<point x="93" y="0"/>
			<point x="55" y="42"/>
			<point x="77" y="100" type="curve" smooth="yes"/>
			<point x="158" y="315" type="line" smooth="yes"/>
			<point x="160" y="320"/>
			<point x="164" y="323"/>
			<point x="169" y="323" type="curve"/>
			<point x="237" y="327" type="line"/>
			<point x="194" y="301" type="line"/>
			<point x="194" y="375" type="line"/>
			<point x="238" y="334" type="line"/>
			<point x="181" y="346" type="line" smooth="yes"/>
			<point x="122" y="358"/>
			<point x="110" y="406"/>
			<point x="110" y="520" type="curve" smooth="yes"/>
			<point x="110" y="686"/>
			<point x="190" y="760"/>
			<point x="367" y="760" type="curve"/>
			<point x="544" y="760"/>
			<point x="624" y="686"/>
			<point x="624" y="520" type="curve" smooth="yes"/>
			<point x="624" y="405"/>
			<point x="611" y="356"/>
			<point x="553" y="345" type="curve" smooth="yes"/>
			<point x="497" y="334" type="line"/>
			<point x="540" y="375" type="line"/>
			<point x="540" y="301" type="line"/>
			<point x="497" y="329" type="line"/>
			<point x="561" y="323" type="line"/>
			<point x="566" y="323"/>
			<point x="573" y="321"/>
			<point x="576" y="314" type="curve"/>
			<point x="653" y="112" type="line" smooth="yes"/>
			<point x="676" y="51"/>
			<point x="662" y="0"/>
			<point x="590" y="0" type="curve" smooth="yes"/>
		</contour>
	</outline>
</glyph>
<glyph name="acute.cap" format="2">
	<advance width="500"/>
	<outline>
		<contour>
			<point x="161" y="870" type="line"/>
			<point x="205" y="828" type="line"/>
			<point x="371" y="960" type="line"/>
			<point x="302" y="1029" type="line"/>
		</contour>
	</outline>
</glyph>
<glyph name="asterisk" format="2">
	<advance width="542"/>
	<outline>
		<contour>
			<point x="301" y="212" type="curve" smooth="yes"/>
			<point x="420" y="212"/>
			<point x="466" y="272"/>
			<point x="466" y="416" type="curve" smooth="yes"/>
			<point x="466" y="561"/>
			<point x="420" y="621"/>
			<point x="301" y="621" type="curve" smooth="yes"/>
			<point x="186" y="621"/>
			<point x="136" y="561"/>
			<point x="136" y="416" type="curve" smooth="yes"/>
			<point x="136" y="272"/>
			<point x="186" y="212"/>
		</contour>
		<contour>
			<point x="301" y="288" type="curve" smooth="yes"/>
			<point x="231" y="288"/>
			<point x="207" y="319"/>
			<point x="207" y="416" type="curve" smooth="yes"/>
			<point x="207" y="514"/>
			<point x="231" y="543"/>
			<point x="301" y="543" type="curve" smooth="yes"/>
			<point x="374" y="543"/>
			<point x="395" y="514"/>
			<point x="395" y="416" type="curve" smooth="yes"/>
			<point x="395" y="319"/>
			<point x="374" y="288"/>
		</contour>
	</outline>
</glyph>
